<?xml version="1.0" encoding="utf-8" standalone="no"?>
<!DOCTYPE svg PUBLIC "-//W3C//DTD SVG 1.1//EN"
  "http://www.w3.org/Graphics/SVG/1.1/DTD/svg11.dtd">
<svg xmlns:xlink="http://www.w3.org/1999/xlink" width="712.941562pt" height="336.670156pt" viewBox="0 0 712.941562 336.670156" xmlns="http://www.w3.org/2000/svg" version="1.1">
 <metadata>
  <rdf:RDF xmlns:dc="http://purl.org/dc/elements/1.1/" xmlns:cc="http://creativecommons.org/ns#" xmlns:rdf="http://www.w3.org/1999/02/22-rdf-syntax-ns#">
   <cc:Work>
    <dc:type rdf:resource="http://purl.org/dc/dcmitype/StillImage"/>
    <dc:date>2026-06-05T16:13:52.598827</dc:date>
    <dc:format>image/svg+xml</dc:format>
    <dc:creator>
     <cc:Agent>
      <dc:title>Matplotlib v3.10.9, https://matplotlib.org/</dc:title>
     </cc:Agent>
    </dc:creator>
   </cc:Work>
  </rdf:RDF>
 </metadata>
 <defs>
  <style type="text/css">*{stroke-linejoin: round; stroke-linecap: butt}</style>
 </defs>
 <g id="figure_1">
  <g id="patch_1">
   <path d="M 0 336.670156 
L 712.941562 336.670156 
L 712.941562 0 
L 0 0 
z
" style="fill: #ffffff"/>
  </g>
  <g id="axes_1">
   <g id="patch_2">
    <path d="M 58.234063 294.618437 
L 705.741562 294.618437 
L 705.741562 37.710938 
L 58.234063 37.710938 
z
" style="fill: #ffffff"/>
   </g>
   <g id="patch_3">
    <path d="M 87.666222 294.618437 
L 102.023372 294.618437 
L 102.023372 293.989147 
L 87.666222 293.989147 
z
" clip-path="url(#pbeeeabd6ab)" style="fill: #2e5c8a; stroke: #ffffff; stroke-width: 0.5; stroke-linejoin: miter"/>
   </g>
   <g id="patch_4">
    <path d="M 109.754146 294.618437 
L 124.111297 294.618437 
L 124.111297 293.802844 
L 109.754146 293.802844 
z
" clip-path="url(#pbeeeabd6ab)" style="fill: #2e5c8a; stroke: #ffffff; stroke-width: 0.5; stroke-linejoin: miter"/>
   </g>
   <g id="patch_5">
    <path d="M 131.84207 294.618437 
L 146.199221 294.618437 
L 146.199221 293.761444 
L 131.84207 293.761444 
z
" clip-path="url(#pbeeeabd6ab)" style="fill: #2e5c8a; stroke: #ffffff; stroke-width: 0.5; stroke-linejoin: miter"/>
   </g>
   <g id="patch_6">
    <path d="M 153.929994 294.618437 
L 168.287145 294.618437 
L 168.287145 293.798704 
L 153.929994 293.798704 
z
" clip-path="url(#pbeeeabd6ab)" style="fill: #2e5c8a; stroke: #ffffff; stroke-width: 0.5; stroke-linejoin: miter"/>
   </g>
   <g id="patch_7">
    <path d="M 176.017919 294.618437 
L 190.375069 294.618437 
L 190.375069 293.761444 
L 176.017919 293.761444 
z
" clip-path="url(#pbeeeabd6ab)" style="fill: #2e5c8a; stroke: #ffffff; stroke-width: 0.5; stroke-linejoin: miter"/>
   </g>
   <g id="patch_8">
    <path d="M 198.105843 294.618437 
L 212.462994 294.618437 
L 212.462994 293.761444 
L 198.105843 293.761444 
z
" clip-path="url(#pbeeeabd6ab)" style="fill: #2e5c8a; stroke: #ffffff; stroke-width: 0.5; stroke-linejoin: miter"/>
   </g>
   <g id="patch_9">
    <path d="M 220.193767 294.618437 
L 234.550918 294.618437 
L 234.550918 293.773864 
L 220.193767 293.773864 
z
" clip-path="url(#pbeeeabd6ab)" style="fill: #2e5c8a; stroke: #ffffff; stroke-width: 0.5; stroke-linejoin: miter"/>
   </g>
   <g id="patch_10">
    <path d="M 242.281691 294.618437 
L 256.638842 294.618437 
L 256.638842 293.720043 
L 242.281691 293.720043 
z
" clip-path="url(#pbeeeabd6ab)" style="fill: #2e5c8a; stroke: #ffffff; stroke-width: 0.5; stroke-linejoin: miter"/>
   </g>
   <g id="patch_11">
    <path d="M 264.369616 294.618437 
L 278.726767 294.618437 
L 278.726767 293.583421 
L 264.369616 293.583421 
z
" clip-path="url(#pbeeeabd6ab)" style="fill: #2e5c8a; stroke: #ffffff; stroke-width: 0.5; stroke-linejoin: miter"/>
   </g>
   <g id="patch_12">
    <path d="M 286.45754 294.618437 
L 300.814691 294.618437 
L 300.814691 293.53374 
L 286.45754 293.53374 
z
" clip-path="url(#pbeeeabd6ab)" style="fill: #2e5c8a; stroke: #ffffff; stroke-width: 0.5; stroke-linejoin: miter"/>
   </g>
   <g id="patch_13">
    <path d="M 308.545464 294.618437 
L 322.902615 294.618437 
L 322.902615 293.409538 
L 308.545464 293.409538 
z
" clip-path="url(#pbeeeabd6ab)" style="fill: #2e5c8a; stroke: #ffffff; stroke-width: 0.5; stroke-linejoin: miter"/>
   </g>
   <g id="patch_14">
    <path d="M 330.633389 294.618437 
L 344.990539 294.618437 
L 344.990539 293.351577 
L 330.633389 293.351577 
z
" clip-path="url(#pbeeeabd6ab)" style="fill: #2e5c8a; stroke: #ffffff; stroke-width: 0.5; stroke-linejoin: miter"/>
   </g>
   <g id="patch_15">
    <path d="M 352.721313 294.618437 
L 367.078464 294.618437 
L 367.078464 293.086613 
L 352.721313 293.086613 
z
" clip-path="url(#pbeeeabd6ab)" style="fill: #2e5c8a; stroke: #ffffff; stroke-width: 0.5; stroke-linejoin: miter"/>
   </g>
   <g id="patch_16">
    <path d="M 374.809237 294.618437 
L 389.166388 294.618437 
L 389.166388 289.298452 
L 374.809237 289.298452 
z
" clip-path="url(#pbeeeabd6ab)" style="fill: #2e5c8a; stroke: #ffffff; stroke-width: 0.5; stroke-linejoin: miter"/>
   </g>
   <g id="patch_17">
    <path d="M 396.897161 294.618437 
L 411.254312 294.618437 
L 411.254312 290.681234 
L 396.897161 290.681234 
z
" clip-path="url(#pbeeeabd6ab)" style="fill: #2e5c8a; stroke: #ffffff; stroke-width: 0.5; stroke-linejoin: miter"/>
   </g>
   <g id="patch_18">
    <path d="M 418.985086 294.618437 
L 433.342236 294.618437 
L 433.342236 288.279995 
L 418.985086 288.279995 
z
" clip-path="url(#pbeeeabd6ab)" style="fill: #2e5c8a; stroke: #ffffff; stroke-width: 0.5; stroke-linejoin: miter"/>
   </g>
   <g id="patch_19">
    <path d="M 441.07301 294.618437 
L 455.430161 294.618437 
L 455.430161 289.600677 
L 441.07301 289.600677 
z
" clip-path="url(#pbeeeabd6ab)" style="fill: #2e5c8a; stroke: #ffffff; stroke-width: 0.5; stroke-linejoin: miter"/>
   </g>
   <g id="patch_20">
    <path d="M 463.160934 294.618437 
L 477.518085 294.618437 
L 477.518085 285.994678 
L 463.160934 285.994678 
z
" clip-path="url(#pbeeeabd6ab)" style="fill: #2e5c8a; stroke: #ffffff; stroke-width: 0.5; stroke-linejoin: miter"/>
   </g>
   <g id="patch_21">
    <path d="M 485.248858 294.618437 
L 499.606009 294.618437 
L 499.606009 287.228418 
L 485.248858 287.228418 
z
" clip-path="url(#pbeeeabd6ab)" style="fill: #2e5c8a; stroke: #ffffff; stroke-width: 0.5; stroke-linejoin: miter"/>
   </g>
   <g id="patch_22">
    <path d="M 507.336783 294.618437 
L 521.693934 294.618437 
L 521.693934 218.250765 
L 507.336783 218.250765 
z
" clip-path="url(#pbeeeabd6ab)" style="fill: #2e5c8a; stroke: #ffffff; stroke-width: 0.5; stroke-linejoin: miter"/>
   </g>
   <g id="patch_23">
    <path d="M 529.424707 294.618437 
L 543.781858 294.618437 
L 543.781858 187.200264 
L 529.424707 187.200264 
z
" clip-path="url(#pbeeeabd6ab)" style="fill: #2e5c8a; stroke: #ffffff; stroke-width: 0.5; stroke-linejoin: miter"/>
   </g>
   <g id="patch_24">
    <path d="M 551.512631 294.618437 
L 565.869782 294.618437 
L 565.869782 182.588229 
L 551.512631 182.588229 
z
" clip-path="url(#pbeeeabd6ab)" style="fill: #2e5c8a; stroke: #ffffff; stroke-width: 0.5; stroke-linejoin: miter"/>
   </g>
   <g id="patch_25">
    <path d="M 573.600556 294.618437 
L 587.957706 294.618437 
L 587.957706 179.657062 
L 573.600556 179.657062 
z
" clip-path="url(#pbeeeabd6ab)" style="fill: #2e5c8a; stroke: #ffffff; stroke-width: 0.5; stroke-linejoin: miter"/>
   </g>
   <g id="patch_26">
    <path d="M 595.68848 294.618437 
L 610.045631 294.618437 
L 610.045631 153.305536 
L 595.68848 153.305536 
z
" clip-path="url(#pbeeeabd6ab)" style="fill: #2e5c8a; stroke: #ffffff; stroke-width: 0.5; stroke-linejoin: miter"/>
   </g>
   <g id="patch_27">
    <path d="M 617.776404 294.618437 
L 632.133555 294.618437 
L 632.133555 120.416846 
L 617.776404 120.416846 
z
" clip-path="url(#pbeeeabd6ab)" style="fill: #2e5c8a; stroke: #ffffff; stroke-width: 0.5; stroke-linejoin: miter"/>
   </g>
   <g id="patch_28">
    <path d="M 639.864328 294.618437 
L 654.221479 294.618437 
L 654.221479 49.944628 
L 639.864328 49.944628 
z
" clip-path="url(#pbeeeabd6ab)" style="fill: #2e5c8a; stroke: #ffffff; stroke-width: 0.5; stroke-linejoin: miter"/>
   </g>
   <g id="patch_29">
    <path d="M 661.952253 294.618437 
L 676.309403 294.618437 
L 676.309403 234.897973 
L 661.952253 234.897973 
z
" clip-path="url(#pbeeeabd6ab)" style="fill: #2e5c8a; stroke: #ffffff; stroke-width: 0.5; stroke-linejoin: miter"/>
   </g>
   <g id="matplotlib.axis_1">
    <g id="xtick_1">
     <g id="line2d_1">
      <defs>
       <path id="m4a92efaa39" d="M 0 0 
L 0 3.5 
" style="stroke: #000000; stroke-width: 0.8"/>
      </defs>
      <g>
       <use xlink:href="#m4a92efaa39" x="94.844797" y="294.618437" style="stroke: #000000; stroke-width: 0.8"/>
      </g>
     </g>
     <g id="text_1">
      <!-- 2000 -->
      <g style="fill: #1a1a1a" transform="translate(84.426047 309.559062) scale(0.1 -0.1)">
       <defs>
        <path id="NotoSansSC-Thin-32" d="M 294 0 
L 294 147 
Q 1120 858 1613 1434 
Q 2106 2010 2323 2499 
Q 2541 2989 2541 3424 
Q 2541 3725 2435 3974 
Q 2330 4224 2106 4371 
Q 1882 4518 1523 4518 
Q 1210 4518 931 4352 
Q 653 4186 442 3923 
L 282 4070 
Q 525 4346 829 4538 
Q 1133 4730 1542 4730 
Q 1939 4730 2214 4566 
Q 2490 4403 2637 4112 
Q 2784 3821 2784 3424 
Q 2784 2918 2537 2406 
Q 2291 1894 1820 1347 
Q 1350 800 678 179 
Q 870 192 1062 201 
Q 1254 211 1440 211 
L 3014 211 
L 3014 0 
L 294 0 
z
" transform="scale(0.015625)"/>
        <path id="NotoSansSC-Thin-30" d="M 1670 -83 
Q 1261 -83 963 179 
Q 666 442 509 979 
Q 352 1517 352 2336 
Q 352 3149 509 3677 
Q 666 4205 963 4467 
Q 1261 4730 1670 4730 
Q 2080 4730 2371 4467 
Q 2662 4205 2822 3677 
Q 2982 3149 2982 2336 
Q 2982 1517 2822 979 
Q 2662 442 2371 179 
Q 2080 -83 1670 -83 
z
M 1670 128 
Q 1997 128 2240 384 
Q 2483 640 2614 1133 
Q 2746 1626 2746 2336 
Q 2746 3040 2614 3529 
Q 2483 4019 2240 4272 
Q 1997 4525 1670 4525 
Q 1344 4525 1101 4272 
Q 858 4019 723 3529 
Q 589 3040 589 2336 
Q 589 1626 723 1133 
Q 858 640 1101 384 
Q 1344 128 1670 128 
z
" transform="scale(0.015625)"/>
       </defs>
       <use xlink:href="#NotoSansSC-Thin-32"/>
       <use xlink:href="#NotoSansSC-Thin-30" transform="translate(52.099991 0)"/>
       <use xlink:href="#NotoSansSC-Thin-30" transform="translate(104.199982 0)"/>
       <use xlink:href="#NotoSansSC-Thin-30" transform="translate(156.299973 0)"/>
      </g>
     </g>
    </g>
    <g id="xtick_2">
     <g id="line2d_2">
      <g>
       <use xlink:href="#m4a92efaa39" x="116.932721" y="294.618437" style="stroke: #000000; stroke-width: 0.8"/>
      </g>
     </g>
     <g id="text_2">
      <!-- 2001 -->
      <g style="fill: #1a1a1a" transform="translate(106.513971 309.559062) scale(0.1 -0.1)">
       <defs>
        <path id="NotoSansSC-Thin-31" d="M 608 0 
L 608 211 
L 1677 211 
L 1677 4211 
L 864 4211 
L 864 4378 
Q 1133 4422 1344 4492 
Q 1555 4563 1702 4646 
L 1901 4646 
L 1901 211 
L 2899 211 
L 2899 0 
L 608 0 
z
" transform="scale(0.015625)"/>
       </defs>
       <use xlink:href="#NotoSansSC-Thin-32"/>
       <use xlink:href="#NotoSansSC-Thin-30" transform="translate(52.099991 0)"/>
       <use xlink:href="#NotoSansSC-Thin-30" transform="translate(104.199982 0)"/>
       <use xlink:href="#NotoSansSC-Thin-31" transform="translate(156.299973 0)"/>
      </g>
     </g>
    </g>
    <g id="xtick_3">
     <g id="line2d_3">
      <g>
       <use xlink:href="#m4a92efaa39" x="139.020646" y="294.618437" style="stroke: #000000; stroke-width: 0.8"/>
      </g>
     </g>
     <g id="text_3">
      <!-- 2002 -->
      <g style="fill: #1a1a1a" transform="translate(128.601896 309.559062) scale(0.1 -0.1)">
       <use xlink:href="#NotoSansSC-Thin-32"/>
       <use xlink:href="#NotoSansSC-Thin-30" transform="translate(52.099991 0)"/>
       <use xlink:href="#NotoSansSC-Thin-30" transform="translate(104.199982 0)"/>
       <use xlink:href="#NotoSansSC-Thin-32" transform="translate(156.299973 0)"/>
      </g>
     </g>
    </g>
    <g id="xtick_4">
     <g id="line2d_4">
      <g>
       <use xlink:href="#m4a92efaa39" x="161.10857" y="294.618437" style="stroke: #000000; stroke-width: 0.8"/>
      </g>
     </g>
     <g id="text_4">
      <!-- 2003 -->
      <g style="fill: #1a1a1a" transform="translate(150.68982 309.559062) scale(0.1 -0.1)">
       <defs>
        <path id="NotoSansSC-Thin-33" d="M 1619 -83 
Q 1261 -83 998 13 
Q 736 109 544 256 
Q 352 403 211 550 
L 358 717 
Q 563 499 857 313 
Q 1152 128 1632 128 
Q 1952 128 2198 262 
Q 2445 397 2585 640 
Q 2726 883 2726 1210 
Q 2726 1542 2560 1795 
Q 2394 2048 2038 2189 
Q 1683 2330 1114 2330 
L 1114 2554 
Q 1651 2554 1964 2698 
Q 2278 2842 2416 3088 
Q 2554 3334 2554 3629 
Q 2554 4026 2298 4272 
Q 2042 4518 1606 4518 
Q 1293 4518 1017 4374 
Q 742 4230 557 4026 
L 410 4192 
Q 634 4410 925 4570 
Q 1216 4730 1606 4730 
Q 1939 4730 2211 4598 
Q 2483 4467 2643 4224 
Q 2803 3981 2803 3642 
Q 2803 3168 2550 2877 
Q 2298 2586 1926 2464 
L 1926 2438 
Q 2208 2381 2445 2221 
Q 2682 2061 2826 1808 
Q 2970 1555 2970 1222 
Q 2970 826 2790 531 
Q 2611 237 2307 77 
Q 2003 -83 1619 -83 
z
" transform="scale(0.015625)"/>
       </defs>
       <use xlink:href="#NotoSansSC-Thin-32"/>
       <use xlink:href="#NotoSansSC-Thin-30" transform="translate(52.099991 0)"/>
       <use xlink:href="#NotoSansSC-Thin-30" transform="translate(104.199982 0)"/>
       <use xlink:href="#NotoSansSC-Thin-33" transform="translate(156.299973 0)"/>
      </g>
     </g>
    </g>
    <g id="xtick_5">
     <g id="line2d_5">
      <g>
       <use xlink:href="#m4a92efaa39" x="183.196494" y="294.618437" style="stroke: #000000; stroke-width: 0.8"/>
      </g>
     </g>
     <g id="text_5">
      <!-- 2004 -->
      <g style="fill: #1a1a1a" transform="translate(172.777744 309.559062) scale(0.1 -0.1)">
       <defs>
        <path id="NotoSansSC-Thin-34" d="M 2195 0 
L 2195 3482 
Q 2195 3629 2204 3843 
Q 2214 4058 2227 4205 
L 2195 4205 
Q 2112 4058 2019 3901 
Q 1926 3744 1830 3590 
L 422 1568 
L 3110 1568 
L 3110 1363 
L 115 1363 
L 115 1485 
L 2259 4646 
L 2419 4646 
L 2419 0 
L 2195 0 
z
" transform="scale(0.015625)"/>
       </defs>
       <use xlink:href="#NotoSansSC-Thin-32"/>
       <use xlink:href="#NotoSansSC-Thin-30" transform="translate(52.099991 0)"/>
       <use xlink:href="#NotoSansSC-Thin-30" transform="translate(104.199982 0)"/>
       <use xlink:href="#NotoSansSC-Thin-34" transform="translate(156.299973 0)"/>
      </g>
     </g>
    </g>
    <g id="xtick_6">
     <g id="line2d_6">
      <g>
       <use xlink:href="#m4a92efaa39" x="205.284418" y="294.618437" style="stroke: #000000; stroke-width: 0.8"/>
      </g>
     </g>
     <g id="text_6">
      <!-- 2005 -->
      <g style="fill: #1a1a1a" transform="translate(194.865668 309.559062) scale(0.1 -0.1)">
       <defs>
        <path id="NotoSansSC-Thin-35" d="M 1581 -83 
Q 1222 -83 963 9 
Q 704 102 515 240 
Q 326 378 186 518 
L 333 691 
Q 467 550 636 422 
Q 806 294 1040 211 
Q 1274 128 1594 128 
Q 1901 128 2166 294 
Q 2432 461 2592 765 
Q 2752 1069 2752 1466 
Q 2752 2061 2441 2406 
Q 2131 2752 1606 2752 
Q 1350 2752 1152 2665 
Q 954 2579 755 2445 
L 563 2560 
L 730 4646 
L 2758 4646 
L 2758 4435 
L 941 4435 
L 787 2726 
Q 966 2835 1168 2902 
Q 1370 2970 1626 2970 
Q 2010 2970 2320 2813 
Q 2630 2656 2812 2326 
Q 2995 1997 2995 1478 
Q 2995 979 2787 630 
Q 2579 282 2256 99 
Q 1933 -83 1581 -83 
z
" transform="scale(0.015625)"/>
       </defs>
       <use xlink:href="#NotoSansSC-Thin-32"/>
       <use xlink:href="#NotoSansSC-Thin-30" transform="translate(52.099991 0)"/>
       <use xlink:href="#NotoSansSC-Thin-30" transform="translate(104.199982 0)"/>
       <use xlink:href="#NotoSansSC-Thin-35" transform="translate(156.299973 0)"/>
      </g>
     </g>
    </g>
    <g id="xtick_7">
     <g id="line2d_7">
      <g>
       <use xlink:href="#m4a92efaa39" x="227.372343" y="294.618437" style="stroke: #000000; stroke-width: 0.8"/>
      </g>
     </g>
     <g id="text_7">
      <!-- 2006 -->
      <g style="fill: #1a1a1a" transform="translate(216.953593 309.559062) scale(0.1 -0.1)">
       <defs>
        <path id="NotoSansSC-Thin-36" d="M 1837 -83 
Q 1498 -83 1232 67 
Q 966 218 780 509 
Q 595 800 496 1216 
Q 397 1632 397 2170 
Q 397 2886 528 3379 
Q 659 3872 889 4169 
Q 1120 4467 1414 4598 
Q 1709 4730 2029 4730 
Q 2330 4730 2550 4614 
Q 2771 4499 2944 4307 
L 2790 4147 
Q 2643 4333 2444 4425 
Q 2246 4518 2022 4518 
Q 1651 4518 1334 4297 
Q 1018 4077 826 3561 
Q 634 3046 634 2170 
Q 634 1581 762 1120 
Q 890 659 1158 393 
Q 1427 128 1850 128 
Q 2125 128 2336 297 
Q 2547 467 2672 752 
Q 2797 1037 2797 1382 
Q 2797 1741 2694 2025 
Q 2592 2310 2368 2476 
Q 2144 2643 1779 2643 
Q 1523 2643 1209 2470 
Q 896 2298 602 1888 
L 602 2176 
Q 768 2381 957 2531 
Q 1146 2682 1360 2762 
Q 1574 2842 1792 2842 
Q 2189 2842 2467 2675 
Q 2746 2509 2893 2185 
Q 3040 1862 3040 1382 
Q 3040 960 2873 630 
Q 2707 301 2435 109 
Q 2163 -83 1837 -83 
z
" transform="scale(0.015625)"/>
       </defs>
       <use xlink:href="#NotoSansSC-Thin-32"/>
       <use xlink:href="#NotoSansSC-Thin-30" transform="translate(52.099991 0)"/>
       <use xlink:href="#NotoSansSC-Thin-30" transform="translate(104.199982 0)"/>
       <use xlink:href="#NotoSansSC-Thin-36" transform="translate(156.299973 0)"/>
      </g>
     </g>
    </g>
    <g id="xtick_8">
     <g id="line2d_8">
      <g>
       <use xlink:href="#m4a92efaa39" x="249.460267" y="294.618437" style="stroke: #000000; stroke-width: 0.8"/>
      </g>
     </g>
     <g id="text_8">
      <!-- 2007 -->
      <g style="fill: #1a1a1a" transform="translate(239.041517 309.559062) scale(0.1 -0.1)">
       <defs>
        <path id="NotoSansSC-Thin-37" d="M 1344 0 
Q 1376 717 1462 1318 
Q 1549 1920 1712 2445 
Q 1875 2970 2124 3459 
Q 2374 3949 2726 4435 
L 307 4435 
L 307 4646 
L 3034 4646 
L 3034 4512 
Q 2624 3955 2355 3436 
Q 2086 2918 1932 2384 
Q 1779 1850 1705 1267 
Q 1632 685 1606 0 
L 1344 0 
z
" transform="scale(0.015625)"/>
       </defs>
       <use xlink:href="#NotoSansSC-Thin-32"/>
       <use xlink:href="#NotoSansSC-Thin-30" transform="translate(52.099991 0)"/>
       <use xlink:href="#NotoSansSC-Thin-30" transform="translate(104.199982 0)"/>
       <use xlink:href="#NotoSansSC-Thin-37" transform="translate(156.299973 0)"/>
      </g>
     </g>
    </g>
    <g id="xtick_9">
     <g id="line2d_9">
      <g>
       <use xlink:href="#m4a92efaa39" x="271.548191" y="294.618437" style="stroke: #000000; stroke-width: 0.8"/>
      </g>
     </g>
     <g id="text_9">
      <!-- 2008 -->
      <g style="fill: #1a1a1a" transform="translate(261.129441 309.559062) scale(0.1 -0.1)">
       <defs>
        <path id="NotoSansSC-Thin-38" d="M 1696 -83 
Q 1286 -83 966 80 
Q 646 243 464 521 
Q 282 800 282 1152 
Q 282 1478 422 1744 
Q 563 2010 774 2202 
Q 986 2394 1197 2509 
L 1197 2534 
Q 954 2694 752 2953 
Q 550 3213 550 3578 
Q 550 3910 704 4163 
Q 858 4416 1117 4560 
Q 1376 4704 1696 4704 
Q 2080 4704 2345 4544 
Q 2611 4384 2752 4112 
Q 2893 3840 2893 3494 
Q 2893 3238 2784 3008 
Q 2675 2778 2528 2602 
Q 2381 2426 2253 2317 
L 2253 2285 
Q 2445 2170 2627 2010 
Q 2810 1850 2925 1626 
Q 3040 1402 3040 1082 
Q 3040 762 2870 496 
Q 2701 230 2400 73 
Q 2099 -83 1696 -83 
z
M 2035 2387 
Q 2336 2630 2499 2905 
Q 2662 3181 2662 3494 
Q 2662 3763 2550 3990 
Q 2438 4218 2220 4358 
Q 2003 4499 1696 4499 
Q 1293 4499 1040 4236 
Q 787 3974 787 3578 
Q 787 3238 972 3017 
Q 1158 2797 1446 2653 
Q 1734 2509 2035 2387 
z
M 1696 128 
Q 2035 128 2281 256 
Q 2528 384 2662 601 
Q 2797 819 2797 1082 
Q 2797 1370 2675 1574 
Q 2554 1779 2352 1923 
Q 2150 2067 1894 2182 
Q 1638 2298 1370 2400 
Q 998 2189 758 1875 
Q 518 1562 518 1152 
Q 518 870 668 636 
Q 819 403 1088 265 
Q 1357 128 1696 128 
z
" transform="scale(0.015625)"/>
       </defs>
       <use xlink:href="#NotoSansSC-Thin-32"/>
       <use xlink:href="#NotoSansSC-Thin-30" transform="translate(52.099991 0)"/>
       <use xlink:href="#NotoSansSC-Thin-30" transform="translate(104.199982 0)"/>
       <use xlink:href="#NotoSansSC-Thin-38" transform="translate(156.299973 0)"/>
      </g>
     </g>
    </g>
    <g id="xtick_10">
     <g id="line2d_10">
      <g>
       <use xlink:href="#m4a92efaa39" x="293.636115" y="294.618437" style="stroke: #000000; stroke-width: 0.8"/>
      </g>
     </g>
     <g id="text_10">
      <!-- 2009 -->
      <g style="fill: #1a1a1a" transform="translate(283.217365 309.559062) scale(0.1 -0.1)">
       <defs>
        <path id="NotoSansSC-Thin-39" d="M 1370 -83 
Q 1050 -83 819 32 
Q 589 147 410 339 
L 557 506 
Q 723 314 934 221 
Q 1146 128 1389 128 
Q 1651 128 1891 256 
Q 2131 384 2316 675 
Q 2502 966 2611 1443 
Q 2720 1920 2720 2618 
Q 2720 3168 2592 3600 
Q 2464 4032 2195 4278 
Q 1926 4525 1498 4525 
Q 1229 4525 1014 4355 
Q 800 4186 675 3901 
Q 550 3616 550 3264 
Q 550 2912 652 2627 
Q 755 2342 979 2172 
Q 1203 2003 1555 2003 
Q 1830 2003 2137 2182 
Q 2445 2362 2739 2765 
L 2746 2470 
Q 2586 2278 2397 2128 
Q 2208 1978 1993 1891 
Q 1779 1805 1536 1805 
Q 1152 1805 877 1974 
Q 602 2144 454 2470 
Q 307 2797 307 3264 
Q 307 3686 473 4019 
Q 640 4352 912 4541 
Q 1184 4730 1510 4730 
Q 1850 4730 2118 4589 
Q 2387 4448 2572 4176 
Q 2758 3904 2857 3513 
Q 2957 3123 2957 2618 
Q 2957 1862 2825 1344 
Q 2694 826 2470 512 
Q 2246 198 1961 57 
Q 1677 -83 1370 -83 
z
" transform="scale(0.015625)"/>
       </defs>
       <use xlink:href="#NotoSansSC-Thin-32"/>
       <use xlink:href="#NotoSansSC-Thin-30" transform="translate(52.099991 0)"/>
       <use xlink:href="#NotoSansSC-Thin-30" transform="translate(104.199982 0)"/>
       <use xlink:href="#NotoSansSC-Thin-39" transform="translate(156.299973 0)"/>
      </g>
     </g>
    </g>
    <g id="xtick_11">
     <g id="line2d_11">
      <g>
       <use xlink:href="#m4a92efaa39" x="315.72404" y="294.618437" style="stroke: #000000; stroke-width: 0.8"/>
      </g>
     </g>
     <g id="text_11">
      <!-- 2010 -->
      <g style="fill: #1a1a1a" transform="translate(305.30529 309.559062) scale(0.1 -0.1)">
       <use xlink:href="#NotoSansSC-Thin-32"/>
       <use xlink:href="#NotoSansSC-Thin-30" transform="translate(52.099991 0)"/>
       <use xlink:href="#NotoSansSC-Thin-31" transform="translate(104.199982 0)"/>
       <use xlink:href="#NotoSansSC-Thin-30" transform="translate(156.299973 0)"/>
      </g>
     </g>
    </g>
    <g id="xtick_12">
     <g id="line2d_12">
      <g>
       <use xlink:href="#m4a92efaa39" x="337.811964" y="294.618437" style="stroke: #000000; stroke-width: 0.8"/>
      </g>
     </g>
     <g id="text_12">
      <!-- 2011 -->
      <g style="fill: #1a1a1a" transform="translate(327.393214 309.559062) scale(0.1 -0.1)">
       <use xlink:href="#NotoSansSC-Thin-32"/>
       <use xlink:href="#NotoSansSC-Thin-30" transform="translate(52.099991 0)"/>
       <use xlink:href="#NotoSansSC-Thin-31" transform="translate(104.199982 0)"/>
       <use xlink:href="#NotoSansSC-Thin-31" transform="translate(156.299973 0)"/>
      </g>
     </g>
    </g>
    <g id="xtick_13">
     <g id="line2d_13">
      <g>
       <use xlink:href="#m4a92efaa39" x="359.899888" y="294.618437" style="stroke: #000000; stroke-width: 0.8"/>
      </g>
     </g>
     <g id="text_13">
      <!-- 2012 -->
      <g style="fill: #1a1a1a" transform="translate(349.481138 309.559062) scale(0.1 -0.1)">
       <use xlink:href="#NotoSansSC-Thin-32"/>
       <use xlink:href="#NotoSansSC-Thin-30" transform="translate(52.099991 0)"/>
       <use xlink:href="#NotoSansSC-Thin-31" transform="translate(104.199982 0)"/>
       <use xlink:href="#NotoSansSC-Thin-32" transform="translate(156.299973 0)"/>
      </g>
     </g>
    </g>
    <g id="xtick_14">
     <g id="line2d_14">
      <g>
       <use xlink:href="#m4a92efaa39" x="381.987813" y="294.618437" style="stroke: #000000; stroke-width: 0.8"/>
      </g>
     </g>
     <g id="text_14">
      <!-- 2013 -->
      <g style="fill: #1a1a1a" transform="translate(371.569063 309.559062) scale(0.1 -0.1)">
       <use xlink:href="#NotoSansSC-Thin-32"/>
       <use xlink:href="#NotoSansSC-Thin-30" transform="translate(52.099991 0)"/>
       <use xlink:href="#NotoSansSC-Thin-31" transform="translate(104.199982 0)"/>
       <use xlink:href="#NotoSansSC-Thin-33" transform="translate(156.299973 0)"/>
      </g>
     </g>
    </g>
    <g id="xtick_15">
     <g id="line2d_15">
      <g>
       <use xlink:href="#m4a92efaa39" x="404.075737" y="294.618437" style="stroke: #000000; stroke-width: 0.8"/>
      </g>
     </g>
     <g id="text_15">
      <!-- 2014 -->
      <g style="fill: #1a1a1a" transform="translate(393.656987 309.559062) scale(0.1 -0.1)">
       <use xlink:href="#NotoSansSC-Thin-32"/>
       <use xlink:href="#NotoSansSC-Thin-30" transform="translate(52.099991 0)"/>
       <use xlink:href="#NotoSansSC-Thin-31" transform="translate(104.199982 0)"/>
       <use xlink:href="#NotoSansSC-Thin-34" transform="translate(156.299973 0)"/>
      </g>
     </g>
    </g>
    <g id="xtick_16">
     <g id="line2d_16">
      <g>
       <use xlink:href="#m4a92efaa39" x="426.163661" y="294.618437" style="stroke: #000000; stroke-width: 0.8"/>
      </g>
     </g>
     <g id="text_16">
      <!-- 2015 -->
      <g style="fill: #1a1a1a" transform="translate(415.744911 309.559062) scale(0.1 -0.1)">
       <use xlink:href="#NotoSansSC-Thin-32"/>
       <use xlink:href="#NotoSansSC-Thin-30" transform="translate(52.099991 0)"/>
       <use xlink:href="#NotoSansSC-Thin-31" transform="translate(104.199982 0)"/>
       <use xlink:href="#NotoSansSC-Thin-35" transform="translate(156.299973 0)"/>
      </g>
     </g>
    </g>
    <g id="xtick_17">
     <g id="line2d_17">
      <g>
       <use xlink:href="#m4a92efaa39" x="448.251585" y="294.618437" style="stroke: #000000; stroke-width: 0.8"/>
      </g>
     </g>
     <g id="text_17">
      <!-- 2016 -->
      <g style="fill: #1a1a1a" transform="translate(437.832835 309.559062) scale(0.1 -0.1)">
       <use xlink:href="#NotoSansSC-Thin-32"/>
       <use xlink:href="#NotoSansSC-Thin-30" transform="translate(52.099991 0)"/>
       <use xlink:href="#NotoSansSC-Thin-31" transform="translate(104.199982 0)"/>
       <use xlink:href="#NotoSansSC-Thin-36" transform="translate(156.299973 0)"/>
      </g>
     </g>
    </g>
    <g id="xtick_18">
     <g id="line2d_18">
      <g>
       <use xlink:href="#m4a92efaa39" x="470.33951" y="294.618437" style="stroke: #000000; stroke-width: 0.8"/>
      </g>
     </g>
     <g id="text_18">
      <!-- 2017 -->
      <g style="fill: #1a1a1a" transform="translate(459.92076 309.559062) scale(0.1 -0.1)">
       <use xlink:href="#NotoSansSC-Thin-32"/>
       <use xlink:href="#NotoSansSC-Thin-30" transform="translate(52.099991 0)"/>
       <use xlink:href="#NotoSansSC-Thin-31" transform="translate(104.199982 0)"/>
       <use xlink:href="#NotoSansSC-Thin-37" transform="translate(156.299973 0)"/>
      </g>
     </g>
    </g>
    <g id="xtick_19">
     <g id="line2d_19">
      <g>
       <use xlink:href="#m4a92efaa39" x="492.427434" y="294.618437" style="stroke: #000000; stroke-width: 0.8"/>
      </g>
     </g>
     <g id="text_19">
      <!-- 2018 -->
      <g style="fill: #1a1a1a" transform="translate(482.008684 309.559062) scale(0.1 -0.1)">
       <use xlink:href="#NotoSansSC-Thin-32"/>
       <use xlink:href="#NotoSansSC-Thin-30" transform="translate(52.099991 0)"/>
       <use xlink:href="#NotoSansSC-Thin-31" transform="translate(104.199982 0)"/>
       <use xlink:href="#NotoSansSC-Thin-38" transform="translate(156.299973 0)"/>
      </g>
     </g>
    </g>
    <g id="xtick_20">
     <g id="line2d_20">
      <g>
       <use xlink:href="#m4a92efaa39" x="514.515358" y="294.618437" style="stroke: #000000; stroke-width: 0.8"/>
      </g>
     </g>
     <g id="text_20">
      <!-- 2019 -->
      <g style="fill: #1a1a1a" transform="translate(504.096608 309.559062) scale(0.1 -0.1)">
       <use xlink:href="#NotoSansSC-Thin-32"/>
       <use xlink:href="#NotoSansSC-Thin-30" transform="translate(52.099991 0)"/>
       <use xlink:href="#NotoSansSC-Thin-31" transform="translate(104.199982 0)"/>
       <use xlink:href="#NotoSansSC-Thin-39" transform="translate(156.299973 0)"/>
      </g>
     </g>
    </g>
    <g id="xtick_21">
     <g id="line2d_21">
      <g>
       <use xlink:href="#m4a92efaa39" x="536.603282" y="294.618437" style="stroke: #000000; stroke-width: 0.8"/>
      </g>
     </g>
     <g id="text_21">
      <!-- 2020 -->
      <g style="fill: #1a1a1a" transform="translate(526.184532 309.559062) scale(0.1 -0.1)">
       <use xlink:href="#NotoSansSC-Thin-32"/>
       <use xlink:href="#NotoSansSC-Thin-30" transform="translate(52.099991 0)"/>
       <use xlink:href="#NotoSansSC-Thin-32" transform="translate(104.199982 0)"/>
       <use xlink:href="#NotoSansSC-Thin-30" transform="translate(156.299973 0)"/>
      </g>
     </g>
    </g>
    <g id="xtick_22">
     <g id="line2d_22">
      <g>
       <use xlink:href="#m4a92efaa39" x="558.691207" y="294.618437" style="stroke: #000000; stroke-width: 0.8"/>
      </g>
     </g>
     <g id="text_22">
      <!-- 2021 -->
      <g style="fill: #1a1a1a" transform="translate(548.272457 309.559062) scale(0.1 -0.1)">
       <use xlink:href="#NotoSansSC-Thin-32"/>
       <use xlink:href="#NotoSansSC-Thin-30" transform="translate(52.099991 0)"/>
       <use xlink:href="#NotoSansSC-Thin-32" transform="translate(104.199982 0)"/>
       <use xlink:href="#NotoSansSC-Thin-31" transform="translate(156.299973 0)"/>
      </g>
     </g>
    </g>
    <g id="xtick_23">
     <g id="line2d_23">
      <g>
       <use xlink:href="#m4a92efaa39" x="580.779131" y="294.618437" style="stroke: #000000; stroke-width: 0.8"/>
      </g>
     </g>
     <g id="text_23">
      <!-- 2022 -->
      <g style="fill: #1a1a1a" transform="translate(570.360381 309.559062) scale(0.1 -0.1)">
       <use xlink:href="#NotoSansSC-Thin-32"/>
       <use xlink:href="#NotoSansSC-Thin-30" transform="translate(52.099991 0)"/>
       <use xlink:href="#NotoSansSC-Thin-32" transform="translate(104.199982 0)"/>
       <use xlink:href="#NotoSansSC-Thin-32" transform="translate(156.299973 0)"/>
      </g>
     </g>
    </g>
    <g id="xtick_24">
     <g id="line2d_24">
      <g>
       <use xlink:href="#m4a92efaa39" x="602.867055" y="294.618437" style="stroke: #000000; stroke-width: 0.8"/>
      </g>
     </g>
     <g id="text_24">
      <!-- 2023 -->
      <g style="fill: #1a1a1a" transform="translate(592.448305 309.559062) scale(0.1 -0.1)">
       <use xlink:href="#NotoSansSC-Thin-32"/>
       <use xlink:href="#NotoSansSC-Thin-30" transform="translate(52.099991 0)"/>
       <use xlink:href="#NotoSansSC-Thin-32" transform="translate(104.199982 0)"/>
       <use xlink:href="#NotoSansSC-Thin-33" transform="translate(156.299973 0)"/>
      </g>
     </g>
    </g>
    <g id="xtick_25">
     <g id="line2d_25">
      <g>
       <use xlink:href="#m4a92efaa39" x="624.954979" y="294.618437" style="stroke: #000000; stroke-width: 0.8"/>
      </g>
     </g>
     <g id="text_25">
      <!-- 2024 -->
      <g style="fill: #1a1a1a" transform="translate(614.536229 309.559062) scale(0.1 -0.1)">
       <use xlink:href="#NotoSansSC-Thin-32"/>
       <use xlink:href="#NotoSansSC-Thin-30" transform="translate(52.099991 0)"/>
       <use xlink:href="#NotoSansSC-Thin-32" transform="translate(104.199982 0)"/>
       <use xlink:href="#NotoSansSC-Thin-34" transform="translate(156.299973 0)"/>
      </g>
     </g>
    </g>
    <g id="xtick_26">
     <g id="line2d_26">
      <g>
       <use xlink:href="#m4a92efaa39" x="647.042904" y="294.618437" style="stroke: #000000; stroke-width: 0.8"/>
      </g>
     </g>
     <g id="text_26">
      <!-- 2025 -->
      <g style="fill: #1a1a1a" transform="translate(636.624154 309.559062) scale(0.1 -0.1)">
       <use xlink:href="#NotoSansSC-Thin-32"/>
       <use xlink:href="#NotoSansSC-Thin-30" transform="translate(52.099991 0)"/>
       <use xlink:href="#NotoSansSC-Thin-32" transform="translate(104.199982 0)"/>
       <use xlink:href="#NotoSansSC-Thin-35" transform="translate(156.299973 0)"/>
      </g>
     </g>
    </g>
    <g id="xtick_27">
     <g id="line2d_27">
      <g>
       <use xlink:href="#m4a92efaa39" x="669.130828" y="294.618437" style="stroke: #000000; stroke-width: 0.8"/>
      </g>
     </g>
     <g id="text_27">
      <!-- 2026 -->
      <g style="fill: #1a1a1a" transform="translate(658.712078 309.559062) scale(0.1 -0.1)">
       <use xlink:href="#NotoSansSC-Thin-32"/>
       <use xlink:href="#NotoSansSC-Thin-30" transform="translate(52.099991 0)"/>
       <use xlink:href="#NotoSansSC-Thin-32" transform="translate(104.199982 0)"/>
       <use xlink:href="#NotoSansSC-Thin-36" transform="translate(156.299973 0)"/>
      </g>
     </g>
    </g>
    <g id="text_28">
     <!-- 年份 (Year) -->
     <g transform="translate(351.423594 326.311562) scale(0.13 -0.13)">
      <defs>
       <path id="NotoSansSC-Thin-5e74" d="M 1958 5338 
L 2144 5286 
Q 1958 4819 1712 4384 
Q 1466 3949 1178 3577 
Q 890 3206 576 2918 
Q 557 2931 528 2953 
Q 499 2976 467 2998 
Q 435 3021 403 3034 
Q 730 3315 1018 3676 
Q 1306 4038 1546 4464 
Q 1786 4890 1958 5338 
z
M 1626 4474 
L 5811 4474 
L 5811 4288 
L 1530 4288 
L 1626 4474 
z
M 1453 3085 
L 5670 3085 
L 5670 2899 
L 1638 2899 
L 1638 1216 
L 1453 1216 
L 1453 3085 
z
M 352 1318 
L 6061 1318 
L 6061 1133 
L 352 1133 
L 352 1318 
z
M 3405 4371 
L 3597 4371 
L 3597 -454 
L 3405 -454 
L 3405 4371 
z
" transform="scale(0.015625)"/>
       <path id="NotoSansSC-Thin-4efd" d="M 1805 5293 
L 1990 5248 
Q 1811 4710 1571 4201 
Q 1331 3693 1052 3245 
Q 774 2797 467 2438 
Q 454 2458 428 2486 
Q 403 2515 374 2544 
Q 346 2573 320 2592 
Q 621 2925 899 3360 
Q 1178 3795 1408 4288 
Q 1638 4781 1805 5293 
z
M 1178 3718 
L 1357 3898 
L 1370 3891 
L 1370 -454 
L 1178 -454 
L 1178 3718 
z
M 3373 5152 
L 3565 5114 
Q 3328 4294 2934 3635 
Q 2541 2976 2010 2522 
Q 1997 2541 1971 2566 
Q 1946 2592 1914 2621 
Q 1882 2650 1856 2662 
Q 2387 3085 2771 3728 
Q 3155 4371 3373 5152 
z
M 2464 2733 
L 5261 2733 
L 5261 2547 
L 2464 2547 
L 2464 2733 
z
M 5171 2733 
L 5357 2733 
Q 5357 2733 5357 2710 
Q 5357 2688 5357 2656 
Q 5357 2624 5350 2605 
Q 5312 1856 5270 1337 
Q 5229 819 5181 492 
Q 5133 166 5072 -16 
Q 5011 -198 4934 -282 
Q 4870 -358 4790 -387 
Q 4710 -416 4589 -416 
Q 4480 -416 4281 -413 
Q 4083 -410 3872 -390 
Q 3866 -346 3853 -294 
Q 3840 -243 3814 -205 
Q 4058 -224 4266 -230 
Q 4474 -237 4557 -237 
Q 4640 -237 4688 -224 
Q 4736 -211 4781 -160 
Q 4864 -70 4931 224 
Q 4998 518 5059 1113 
Q 5120 1709 5171 2688 
L 5171 2733 
z
M 3539 2682 
L 3731 2662 
Q 3616 1530 3254 778 
Q 2893 26 2176 -448 
Q 2163 -429 2137 -403 
Q 2112 -378 2083 -352 
Q 2054 -326 2029 -307 
Q 2746 122 3088 861 
Q 3430 1600 3539 2682 
z
M 4672 5190 
Q 4819 4621 5017 4182 
Q 5216 3744 5488 3389 
Q 5760 3034 6125 2720 
Q 6080 2694 6041 2652 
Q 6003 2611 5971 2566 
Q 5606 2899 5331 3273 
Q 5056 3648 4854 4109 
Q 4653 4570 4506 5152 
L 4672 5190 
z
" transform="scale(0.015625)"/>
       <path id="NotoSansSC-Thin-20" transform="scale(0.015625)"/>
       <path id="NotoSansSC-Thin-28" d="M 1562 -1222 
Q 1133 -525 883 252 
Q 634 1030 634 1958 
Q 634 2886 883 3667 
Q 1133 4448 1562 5146 
L 1696 5056 
Q 1274 4390 1059 3596 
Q 845 2803 845 1958 
Q 845 1114 1059 320 
Q 1274 -474 1696 -1139 
L 1562 -1222 
z
" transform="scale(0.015625)"/>
       <path id="NotoSansSC-Thin-59" d="M 1421 0 
L 1421 1907 
L 26 4646 
L 282 4646 
L 1018 3149 
Q 1146 2893 1267 2646 
Q 1389 2400 1530 2144 
L 1555 2144 
Q 1696 2400 1827 2646 
Q 1958 2893 2074 3149 
L 2816 4646 
L 3053 4646 
L 1658 1907 
L 1658 0 
L 1421 0 
z
" transform="scale(0.015625)"/>
       <path id="NotoSansSC-Thin-65" d="M 1920 -83 
Q 1498 -83 1146 128 
Q 794 339 586 732 
Q 378 1126 378 1677 
Q 378 2093 496 2419 
Q 614 2746 822 2979 
Q 1030 3213 1289 3334 
Q 1549 3456 1830 3456 
Q 2221 3456 2505 3277 
Q 2790 3098 2947 2749 
Q 3104 2400 3104 1901 
Q 3104 1850 3104 1795 
Q 3104 1741 3091 1670 
L 621 1670 
Q 621 1229 784 880 
Q 947 531 1241 329 
Q 1536 128 1933 128 
Q 2221 128 2445 211 
Q 2669 294 2861 435 
L 2963 237 
Q 2771 122 2534 19 
Q 2298 -83 1920 -83 
z
M 621 1882 
L 2880 1882 
Q 2880 2566 2592 2905 
Q 2304 3245 1830 3245 
Q 1530 3245 1267 3081 
Q 1005 2918 832 2614 
Q 659 2310 621 1882 
z
" transform="scale(0.015625)"/>
       <path id="NotoSansSC-Thin-61" d="M 1395 -83 
Q 1133 -83 912 13 
Q 691 109 556 310 
Q 422 512 422 832 
Q 422 1395 953 1686 
Q 1485 1978 2624 2106 
Q 2637 2381 2576 2640 
Q 2515 2899 2336 3072 
Q 2157 3245 1805 3245 
Q 1446 3245 1158 3104 
Q 870 2963 704 2835 
L 589 3021 
Q 698 3098 880 3200 
Q 1062 3302 1302 3379 
Q 1542 3456 1818 3456 
Q 2214 3456 2441 3280 
Q 2669 3104 2761 2816 
Q 2854 2528 2854 2182 
L 2854 0 
L 2662 0 
L 2630 448 
L 2611 448 
Q 2355 237 2044 77 
Q 1734 -83 1395 -83 
z
M 1414 128 
Q 1715 128 2003 272 
Q 2291 416 2624 698 
L 2624 1907 
Q 1894 1830 1462 1686 
Q 1030 1542 844 1334 
Q 659 1126 659 838 
Q 659 448 883 288 
Q 1107 128 1414 128 
z
" transform="scale(0.015625)"/>
       <path id="NotoSansSC-Thin-72" d="M 672 0 
L 672 3373 
L 864 3373 
L 902 2739 
L 915 2739 
Q 1082 3046 1325 3251 
Q 1568 3456 1869 3456 
Q 1958 3456 2035 3443 
Q 2112 3430 2195 3386 
L 2138 3174 
Q 2054 3206 1996 3219 
Q 1939 3232 1837 3232 
Q 1613 3232 1357 3030 
Q 1101 2829 902 2330 
L 902 0 
L 672 0 
z
" transform="scale(0.015625)"/>
       <path id="NotoSansSC-Thin-29" d="M 352 -1222 
L 211 -1139 
Q 634 -474 851 320 
Q 1069 1114 1069 1958 
Q 1069 2803 851 3596 
Q 634 4390 211 5056 
L 352 5146 
Q 787 4448 1033 3667 
Q 1280 2886 1280 1958 
Q 1280 1030 1033 252 
Q 787 -525 352 -1222 
z
" transform="scale(0.015625)"/>
      </defs>
      <use xlink:href="#NotoSansSC-Thin-5e74"/>
      <use xlink:href="#NotoSansSC-Thin-4efd" transform="translate(99.999985 0)"/>
      <use xlink:href="#NotoSansSC-Thin-20" transform="translate(199.999969 0)"/>
      <use xlink:href="#NotoSansSC-Thin-28" transform="translate(221.999954 0)"/>
      <use xlink:href="#NotoSansSC-Thin-59" transform="translate(251.899948 0)"/>
      <use xlink:href="#NotoSansSC-Thin-65" transform="translate(300.099945 0)"/>
      <use xlink:href="#NotoSansSC-Thin-61" transform="translate(352.799942 0)"/>
      <use xlink:href="#NotoSansSC-Thin-72" transform="translate(406.399933 0)"/>
      <use xlink:href="#NotoSansSC-Thin-29" transform="translate(440.299927 0)"/>
     </g>
    </g>
   </g>
   <g id="matplotlib.axis_2">
    <g id="ytick_1">
     <g id="line2d_28">
      <path d="M 58.234063 294.618437 
L 705.741562 294.618437 
" clip-path="url(#pbeeeabd6ab)" style="fill: none; stroke-dasharray: 1.48,0.64; stroke-dashoffset: 0; stroke: #b0b0b0; stroke-opacity: 0.5; stroke-width: 0.4"/>
     </g>
     <g id="line2d_29">
      <defs>
       <path id="m15d2211642" d="M 0 0 
L -3.5 0 
" style="stroke: #000000; stroke-width: 0.8"/>
      </defs>
      <g>
       <use xlink:href="#m15d2211642" x="58.234063" y="294.618437" style="stroke: #000000; stroke-width: 0.8"/>
      </g>
     </g>
     <g id="text_29">
      <!-- 0 -->
      <g style="fill: #1a1a1a" transform="translate(46.024688 298.58875) scale(0.1 -0.1)">
       <use xlink:href="#NotoSansSC-Thin-30"/>
      </g>
     </g>
    </g>
    <g id="ytick_2">
     <g id="line2d_30">
      <path d="M 58.234063 253.217769 
L 705.741562 253.217769 
" clip-path="url(#pbeeeabd6ab)" style="fill: none; stroke-dasharray: 1.48,0.64; stroke-dashoffset: 0; stroke: #b0b0b0; stroke-opacity: 0.5; stroke-width: 0.4"/>
     </g>
     <g id="line2d_31">
      <g>
       <use xlink:href="#m15d2211642" x="58.234063" y="253.217769" style="stroke: #000000; stroke-width: 0.8"/>
      </g>
     </g>
     <g id="text_30">
      <!-- 10000 -->
      <g style="fill: #1a1a1a" transform="translate(25.187188 257.188082) scale(0.1 -0.1)">
       <use xlink:href="#NotoSansSC-Thin-31"/>
       <use xlink:href="#NotoSansSC-Thin-30" transform="translate(52.099991 0)"/>
       <use xlink:href="#NotoSansSC-Thin-30" transform="translate(104.199982 0)"/>
       <use xlink:href="#NotoSansSC-Thin-30" transform="translate(156.299973 0)"/>
       <use xlink:href="#NotoSansSC-Thin-30" transform="translate(208.399963 0)"/>
      </g>
     </g>
    </g>
    <g id="ytick_3">
     <g id="line2d_32">
      <path d="M 58.234063 211.817101 
L 705.741562 211.817101 
" clip-path="url(#pbeeeabd6ab)" style="fill: none; stroke-dasharray: 1.48,0.64; stroke-dashoffset: 0; stroke: #b0b0b0; stroke-opacity: 0.5; stroke-width: 0.4"/>
     </g>
     <g id="line2d_33">
      <g>
       <use xlink:href="#m15d2211642" x="58.234063" y="211.817101" style="stroke: #000000; stroke-width: 0.8"/>
      </g>
     </g>
     <g id="text_31">
      <!-- 20000 -->
      <g style="fill: #1a1a1a" transform="translate(25.187188 215.787413) scale(0.1 -0.1)">
       <use xlink:href="#NotoSansSC-Thin-32"/>
       <use xlink:href="#NotoSansSC-Thin-30" transform="translate(52.099991 0)"/>
       <use xlink:href="#NotoSansSC-Thin-30" transform="translate(104.199982 0)"/>
       <use xlink:href="#NotoSansSC-Thin-30" transform="translate(156.299973 0)"/>
       <use xlink:href="#NotoSansSC-Thin-30" transform="translate(208.399963 0)"/>
      </g>
     </g>
    </g>
    <g id="ytick_4">
     <g id="line2d_34">
      <path d="M 58.234063 170.416433 
L 705.741562 170.416433 
" clip-path="url(#pbeeeabd6ab)" style="fill: none; stroke-dasharray: 1.48,0.64; stroke-dashoffset: 0; stroke: #b0b0b0; stroke-opacity: 0.5; stroke-width: 0.4"/>
     </g>
     <g id="line2d_35">
      <g>
       <use xlink:href="#m15d2211642" x="58.234063" y="170.416433" style="stroke: #000000; stroke-width: 0.8"/>
      </g>
     </g>
     <g id="text_32">
      <!-- 30000 -->
      <g style="fill: #1a1a1a" transform="translate(25.187188 174.386745) scale(0.1 -0.1)">
       <use xlink:href="#NotoSansSC-Thin-33"/>
       <use xlink:href="#NotoSansSC-Thin-30" transform="translate(52.099991 0)"/>
       <use xlink:href="#NotoSansSC-Thin-30" transform="translate(104.199982 0)"/>
       <use xlink:href="#NotoSansSC-Thin-30" transform="translate(156.299973 0)"/>
       <use xlink:href="#NotoSansSC-Thin-30" transform="translate(208.399963 0)"/>
      </g>
     </g>
    </g>
    <g id="ytick_5">
     <g id="line2d_36">
      <path d="M 58.234063 129.015764 
L 705.741562 129.015764 
" clip-path="url(#pbeeeabd6ab)" style="fill: none; stroke-dasharray: 1.48,0.64; stroke-dashoffset: 0; stroke: #b0b0b0; stroke-opacity: 0.5; stroke-width: 0.4"/>
     </g>
     <g id="line2d_37">
      <g>
       <use xlink:href="#m15d2211642" x="58.234063" y="129.015764" style="stroke: #000000; stroke-width: 0.8"/>
      </g>
     </g>
     <g id="text_33">
      <!-- 40000 -->
      <g style="fill: #1a1a1a" transform="translate(25.187188 132.986077) scale(0.1 -0.1)">
       <use xlink:href="#NotoSansSC-Thin-34"/>
       <use xlink:href="#NotoSansSC-Thin-30" transform="translate(52.099991 0)"/>
       <use xlink:href="#NotoSansSC-Thin-30" transform="translate(104.199982 0)"/>
       <use xlink:href="#NotoSansSC-Thin-30" transform="translate(156.299973 0)"/>
       <use xlink:href="#NotoSansSC-Thin-30" transform="translate(208.399963 0)"/>
      </g>
     </g>
    </g>
    <g id="ytick_6">
     <g id="line2d_38">
      <path d="M 58.234063 87.615096 
L 705.741562 87.615096 
" clip-path="url(#pbeeeabd6ab)" style="fill: none; stroke-dasharray: 1.48,0.64; stroke-dashoffset: 0; stroke: #b0b0b0; stroke-opacity: 0.5; stroke-width: 0.4"/>
     </g>
     <g id="line2d_39">
      <g>
       <use xlink:href="#m15d2211642" x="58.234063" y="87.615096" style="stroke: #000000; stroke-width: 0.8"/>
      </g>
     </g>
     <g id="text_34">
      <!-- 50000 -->
      <g style="fill: #1a1a1a" transform="translate(25.187188 91.585409) scale(0.1 -0.1)">
       <use xlink:href="#NotoSansSC-Thin-35"/>
       <use xlink:href="#NotoSansSC-Thin-30" transform="translate(52.099991 0)"/>
       <use xlink:href="#NotoSansSC-Thin-30" transform="translate(104.199982 0)"/>
       <use xlink:href="#NotoSansSC-Thin-30" transform="translate(156.299973 0)"/>
       <use xlink:href="#NotoSansSC-Thin-30" transform="translate(208.399963 0)"/>
      </g>
     </g>
    </g>
    <g id="ytick_7">
     <g id="line2d_40">
      <path d="M 58.234063 46.214428 
L 705.741562 46.214428 
" clip-path="url(#pbeeeabd6ab)" style="fill: none; stroke-dasharray: 1.48,0.64; stroke-dashoffset: 0; stroke: #b0b0b0; stroke-opacity: 0.5; stroke-width: 0.4"/>
     </g>
     <g id="line2d_41">
      <g>
       <use xlink:href="#m15d2211642" x="58.234063" y="46.214428" style="stroke: #000000; stroke-width: 0.8"/>
      </g>
     </g>
     <g id="text_35">
      <!-- 60000 -->
      <g style="fill: #1a1a1a" transform="translate(25.187188 50.18474) scale(0.1 -0.1)">
       <use xlink:href="#NotoSansSC-Thin-36"/>
       <use xlink:href="#NotoSansSC-Thin-30" transform="translate(52.099991 0)"/>
       <use xlink:href="#NotoSansSC-Thin-30" transform="translate(104.199982 0)"/>
       <use xlink:href="#NotoSansSC-Thin-30" transform="translate(156.299973 0)"/>
       <use xlink:href="#NotoSansSC-Thin-30" transform="translate(208.399963 0)"/>
      </g>
     </g>
    </g>
    <g id="text_36">
     <!-- 论文数量 (Paper Count) -->
     <g transform="translate(18.028594 233.304609) rotate(-90) scale(0.13 -0.13)">
      <defs>
       <path id="NotoSansSC-Thin-8bba" d="M 4128 5062 
Q 4365 4672 4707 4272 
Q 5050 3872 5430 3542 
Q 5811 3213 6150 3014 
Q 6131 2995 6105 2969 
Q 6080 2944 6054 2915 
Q 6029 2886 6010 2861 
Q 5754 3027 5472 3267 
Q 5190 3507 4915 3792 
Q 4640 4077 4397 4384 
Q 4154 4691 3974 4986 
L 4128 5062 
z
M 4077 5318 
L 4288 5286 
Q 4109 4890 3821 4448 
Q 3533 4006 3129 3584 
Q 2726 3162 2202 2816 
Q 2182 2835 2156 2857 
Q 2131 2880 2108 2902 
Q 2086 2925 2061 2938 
Q 2573 3270 2969 3680 
Q 3366 4090 3644 4518 
Q 3923 4947 4077 5318 
z
M 3059 3014 
L 3251 3014 
L 3251 173 
Q 3251 0 3340 -54 
Q 3430 -109 3725 -109 
Q 3795 -109 4003 -109 
Q 4211 -109 4460 -109 
Q 4710 -109 4931 -109 
Q 5152 -109 5248 -109 
Q 5414 -109 5497 -45 
Q 5581 19 5616 208 
Q 5651 397 5664 768 
Q 5690 749 5722 733 
Q 5754 717 5789 704 
Q 5824 691 5850 685 
Q 5830 294 5782 83 
Q 5734 -128 5612 -211 
Q 5491 -294 5242 -294 
Q 5210 -294 5056 -294 
Q 4902 -294 4697 -294 
Q 4493 -294 4288 -294 
Q 4083 -294 3929 -294 
Q 3776 -294 3744 -294 
Q 3482 -294 3331 -256 
Q 3181 -218 3120 -115 
Q 3059 -13 3059 179 
L 3059 3014 
z
M 5216 2662 
L 5350 2509 
Q 5062 2298 4688 2074 
Q 4314 1850 3930 1642 
Q 3546 1434 3219 1280 
L 3104 1421 
Q 3424 1574 3811 1788 
Q 4198 2003 4572 2233 
Q 4947 2464 5216 2662 
z
M 832 4973 
L 960 5101 
Q 1152 4941 1353 4749 
Q 1555 4557 1728 4371 
Q 1901 4186 2010 4045 
L 1869 3898 
Q 1760 4045 1587 4230 
Q 1414 4416 1216 4614 
Q 1018 4813 832 4973 
z
M 1261 -230 
L 1254 -32 
L 1357 141 
L 2368 896 
Q 2387 858 2409 816 
Q 2432 774 2451 749 
Q 2080 461 1856 285 
Q 1632 109 1513 9 
Q 1395 -90 1344 -141 
Q 1293 -192 1261 -230 
z
M 314 3264 
L 1504 3264 
L 1504 3072 
L 314 3072 
L 314 3264 
z
M 1261 -237 
Q 1248 -211 1222 -182 
Q 1197 -154 1171 -125 
Q 1146 -96 1126 -77 
Q 1171 -45 1241 28 
Q 1312 102 1369 211 
Q 1427 320 1427 461 
L 1427 3264 
L 1613 3264 
L 1613 166 
Q 1613 166 1577 134 
Q 1542 102 1491 54 
Q 1440 6 1385 -51 
Q 1331 -109 1296 -157 
Q 1261 -205 1261 -237 
z
" transform="scale(0.015625)"/>
       <path id="NotoSansSC-Thin-6587" d="M 4851 4058 
L 5043 3987 
Q 4614 2835 3977 1993 
Q 3341 1152 2464 563 
Q 1587 -26 435 -429 
Q 422 -410 400 -374 
Q 378 -339 352 -304 
Q 326 -269 301 -250 
Q 1453 128 2323 707 
Q 3194 1286 3818 2112 
Q 4442 2938 4851 4058 
z
M 1504 4051 
Q 1901 3008 2557 2147 
Q 3213 1286 4105 672 
Q 4998 58 6112 -243 
Q 6093 -262 6067 -294 
Q 6042 -326 6016 -355 
Q 5990 -384 5971 -416 
Q 4851 -96 3955 528 
Q 3059 1152 2400 2032 
Q 1741 2912 1331 3987 
L 1504 4051 
z
M 358 4134 
L 6067 4134 
L 6067 3949 
L 358 3949 
L 358 4134 
z
M 2778 5274 
L 2957 5331 
Q 3123 5101 3283 4819 
Q 3443 4538 3526 4339 
L 3341 4269 
Q 3264 4467 3104 4752 
Q 2944 5037 2778 5274 
z
" transform="scale(0.015625)"/>
       <path id="NotoSansSC-Thin-6570" d="M 512 1990 
L 2970 1990 
L 2970 1798 
L 512 1798 
L 512 1990 
z
M 365 4064 
L 3386 4064 
L 3386 3878 
L 365 3878 
L 365 4064 
z
M 2957 5146 
L 3123 5050 
Q 3002 4826 2845 4586 
Q 2688 4346 2554 4173 
L 2419 4256 
Q 2509 4371 2608 4531 
Q 2707 4691 2800 4854 
Q 2893 5018 2957 5146 
z
M 1792 5318 
L 1984 5318 
L 1984 2611 
L 1792 2611 
L 1792 5318 
z
M 691 5043 
L 845 5101 
Q 992 4902 1117 4662 
Q 1242 4422 1286 4250 
L 1139 4179 
Q 1088 4352 960 4598 
Q 832 4845 691 5043 
z
M 1792 3987 
L 1946 3904 
Q 1798 3622 1561 3344 
Q 1325 3066 1046 2832 
Q 768 2598 486 2445 
Q 467 2490 428 2538 
Q 390 2586 358 2618 
Q 634 2746 909 2960 
Q 1184 3174 1417 3443 
Q 1651 3712 1792 3987 
z
M 1946 3866 
Q 2029 3814 2205 3696 
Q 2381 3578 2585 3443 
Q 2790 3309 2960 3190 
Q 3130 3072 3200 3021 
L 3072 2854 
Q 2995 2925 2832 3049 
Q 2669 3174 2473 3315 
Q 2278 3456 2105 3574 
Q 1933 3693 1830 3750 
L 1946 3866 
z
M 3962 4013 
L 5997 4013 
L 5997 3827 
L 3962 3827 
L 3962 4013 
z
M 4128 5222 
L 4314 5190 
Q 4218 4614 4083 4086 
Q 3949 3558 3766 3100 
Q 3584 2643 3354 2285 
Q 3341 2298 3309 2320 
Q 3277 2342 3241 2361 
Q 3206 2381 3181 2394 
Q 3424 2733 3603 3184 
Q 3782 3635 3913 4153 
Q 4045 4672 4128 5222 
z
M 5357 3936 
L 5549 3910 
Q 5382 2829 5084 2006 
Q 4787 1184 4291 579 
Q 3795 -26 3040 -454 
Q 3027 -435 3004 -406 
Q 2982 -378 2956 -349 
Q 2931 -320 2906 -301 
Q 3654 90 4140 678 
Q 4627 1267 4915 2076 
Q 5203 2886 5357 3936 
z
M 3994 3789 
Q 4147 2874 4425 2070 
Q 4704 1267 5133 668 
Q 5562 70 6150 -243 
Q 6112 -269 6073 -313 
Q 6035 -358 6010 -397 
Q 5414 -51 4985 563 
Q 4557 1178 4275 1997 
Q 3994 2816 3834 3757 
L 3994 3789 
z
M 896 1018 
L 1050 1152 
Q 1370 1037 1722 873 
Q 2074 710 2387 544 
Q 2701 378 2906 230 
L 2752 90 
Q 2554 237 2240 406 
Q 1926 576 1574 739 
Q 1222 902 896 1018 
z
M 2880 1990 
L 2918 1990 
L 2963 2003 
L 3066 1946 
Q 2874 1286 2474 825 
Q 2074 365 1552 80 
Q 1030 -205 467 -358 
Q 454 -320 422 -272 
Q 390 -224 358 -198 
Q 902 -64 1411 205 
Q 1920 474 2310 906 
Q 2701 1338 2880 1946 
L 2880 1990 
z
M 896 1018 
Q 1030 1210 1168 1453 
Q 1306 1696 1427 1952 
Q 1549 2208 1632 2438 
L 1811 2406 
Q 1722 2170 1597 1910 
Q 1472 1651 1341 1414 
Q 1210 1178 1094 1005 
L 896 1018 
z
" transform="scale(0.015625)"/>
       <path id="NotoSansSC-Thin-91cf" d="M 1350 4250 
L 1350 3757 
L 5056 3757 
L 5056 4250 
L 1350 4250 
z
M 1350 4915 
L 1350 4435 
L 5056 4435 
L 5056 4915 
L 1350 4915 
z
M 1165 5101 
L 5242 5101 
L 5242 3571 
L 1165 3571 
L 1165 5101 
z
M 1235 1779 
L 1235 1274 
L 5267 1274 
L 5267 1779 
L 1235 1779 
z
M 1235 2464 
L 1235 1971 
L 5267 1971 
L 5267 2464 
L 1235 2464 
z
M 1050 2656 
L 5459 2656 
L 5459 1088 
L 1050 1088 
L 1050 2656 
z
M 3091 2573 
L 3283 2573 
L 3283 -192 
L 3091 -192 
L 3091 2573 
z
M 378 3226 
L 6029 3226 
L 6029 3034 
L 378 3034 
L 378 3226 
z
M 819 595 
L 5619 595 
L 5619 410 
L 819 410 
L 819 595 
z
M 320 -102 
L 6086 -102 
L 6086 -288 
L 320 -288 
L 320 -102 
z
" transform="scale(0.015625)"/>
       <path id="NotoSansSC-Thin-50" d="M 704 0 
L 704 4646 
L 1824 4646 
Q 2355 4646 2726 4521 
Q 3098 4397 3293 4121 
Q 3488 3846 3488 3379 
Q 3488 2931 3296 2636 
Q 3104 2342 2739 2195 
Q 2374 2048 1850 2048 
L 941 2048 
L 941 0 
L 704 0 
z
M 941 2259 
L 1766 2259 
Q 2509 2259 2870 2518 
Q 3232 2778 3232 3379 
Q 3232 3987 2864 4211 
Q 2496 4435 1741 4435 
L 941 4435 
L 941 2259 
z
" transform="scale(0.015625)"/>
       <path id="NotoSansSC-Thin-70" d="M 672 -1555 
L 672 3373 
L 864 3373 
L 902 2938 
L 915 2938 
Q 1165 3136 1462 3296 
Q 1760 3456 2074 3456 
Q 2534 3456 2835 3241 
Q 3136 3027 3283 2643 
Q 3430 2259 3430 1734 
Q 3430 1165 3222 755 
Q 3014 346 2675 131 
Q 2336 -83 1933 -83 
Q 1696 -83 1433 29 
Q 1171 141 902 339 
L 902 -294 
L 902 -1555 
L 672 -1555 
z
M 1952 128 
Q 2310 128 2588 333 
Q 2867 538 3027 902 
Q 3187 1267 3187 1734 
Q 3187 2163 3075 2505 
Q 2963 2848 2716 3046 
Q 2470 3245 2054 3245 
Q 1798 3245 1510 3094 
Q 1222 2944 902 2662 
L 902 582 
Q 1203 333 1478 230 
Q 1754 128 1952 128 
z
" transform="scale(0.015625)"/>
       <path id="NotoSansSC-Thin-43" d="M 2317 -83 
Q 1888 -83 1536 86 
Q 1184 256 928 576 
Q 672 896 534 1341 
Q 397 1786 397 2336 
Q 397 2886 537 3328 
Q 678 3770 934 4083 
Q 1190 4397 1552 4563 
Q 1914 4730 2355 4730 
Q 2758 4730 3059 4560 
Q 3360 4390 3539 4179 
L 3392 4019 
Q 3206 4237 2944 4371 
Q 2682 4506 2355 4506 
Q 1824 4506 1440 4240 
Q 1056 3974 851 3488 
Q 646 3002 646 2336 
Q 646 1670 851 1177 
Q 1056 685 1433 413 
Q 1811 141 2330 141 
Q 2694 141 2982 288 
Q 3270 435 3533 730 
L 3680 576 
Q 3418 269 3094 93 
Q 2771 -83 2317 -83 
z
" transform="scale(0.015625)"/>
       <path id="NotoSansSC-Thin-6f" d="M 1875 -83 
Q 1472 -83 1129 125 
Q 787 333 582 726 
Q 378 1120 378 1677 
Q 378 2246 582 2643 
Q 787 3040 1129 3248 
Q 1472 3456 1875 3456 
Q 2176 3456 2448 3337 
Q 2720 3219 2928 2992 
Q 3136 2765 3254 2432 
Q 3373 2099 3373 1677 
Q 3373 1120 3165 726 
Q 2957 333 2617 125 
Q 2278 -83 1875 -83 
z
M 1875 128 
Q 2234 128 2518 323 
Q 2803 518 2969 867 
Q 3136 1216 3136 1677 
Q 3136 2144 2969 2496 
Q 2803 2848 2518 3046 
Q 2234 3245 1875 3245 
Q 1517 3245 1232 3046 
Q 947 2848 784 2496 
Q 621 2144 621 1677 
Q 621 1216 784 867 
Q 947 518 1232 323 
Q 1517 128 1875 128 
z
" transform="scale(0.015625)"/>
       <path id="NotoSansSC-Thin-75" d="M 1632 -83 
Q 1114 -83 864 230 
Q 614 544 614 1203 
L 614 3373 
L 845 3373 
L 845 1229 
Q 845 672 1033 400 
Q 1222 128 1651 128 
Q 1965 128 2224 304 
Q 2483 480 2797 851 
L 2797 3373 
L 3027 3373 
L 3027 0 
L 2829 0 
L 2803 576 
L 2790 576 
Q 2534 282 2259 99 
Q 1984 -83 1632 -83 
z
" transform="scale(0.015625)"/>
       <path id="NotoSansSC-Thin-6e" d="M 672 0 
L 672 3373 
L 864 3373 
L 902 2835 
L 915 2835 
Q 1178 3098 1453 3277 
Q 1728 3456 2080 3456 
Q 2598 3456 2848 3139 
Q 3098 2822 3098 2170 
L 3098 0 
L 2867 0 
L 2867 2138 
Q 2867 2694 2678 2969 
Q 2490 3245 2054 3245 
Q 1741 3245 1481 3078 
Q 1222 2912 902 2579 
L 902 0 
L 672 0 
z
" transform="scale(0.015625)"/>
       <path id="NotoSansSC-Thin-74" d="M 1542 -83 
Q 1229 -83 1056 38 
Q 883 160 816 381 
Q 749 602 749 896 
L 749 3162 
L 211 3162 
L 211 3341 
L 749 3373 
L 774 4358 
L 973 4358 
L 973 3373 
L 1971 3373 
L 1971 3162 
L 973 3162 
L 973 864 
Q 973 538 1081 333 
Q 1190 128 1562 128 
Q 1658 128 1779 160 
Q 1901 192 1990 237 
L 2067 45 
Q 1920 -6 1776 -44 
Q 1632 -83 1542 -83 
z
" transform="scale(0.015625)"/>
      </defs>
      <use xlink:href="#NotoSansSC-Thin-8bba"/>
      <use xlink:href="#NotoSansSC-Thin-6587" transform="translate(99.999985 0)"/>
      <use xlink:href="#NotoSansSC-Thin-6570" transform="translate(199.999969 0)"/>
      <use xlink:href="#NotoSansSC-Thin-91cf" transform="translate(299.999954 0)"/>
      <use xlink:href="#NotoSansSC-Thin-20" transform="translate(399.999939 0)"/>
      <use xlink:href="#NotoSansSC-Thin-28" transform="translate(421.999924 0)"/>
      <use xlink:href="#NotoSansSC-Thin-50" transform="translate(451.899918 0)"/>
      <use xlink:href="#NotoSansSC-Thin-61" transform="translate(511.699905 0)"/>
      <use xlink:href="#NotoSansSC-Thin-70" transform="translate(565.299896 0)"/>
      <use xlink:href="#NotoSansSC-Thin-65" transform="translate(624.799881 0)"/>
      <use xlink:href="#NotoSansSC-Thin-72" transform="translate(677.499878 0)"/>
      <use xlink:href="#NotoSansSC-Thin-20" transform="translate(711.399872 0)"/>
      <use xlink:href="#NotoSansSC-Thin-43" transform="translate(733.399857 0)"/>
      <use xlink:href="#NotoSansSC-Thin-6f" transform="translate(795.29985 0)"/>
      <use xlink:href="#NotoSansSC-Thin-75" transform="translate(853.899841 0)"/>
      <use xlink:href="#NotoSansSC-Thin-6e" transform="translate(911.599838 0)"/>
      <use xlink:href="#NotoSansSC-Thin-74" transform="translate(969.599823 0)"/>
      <use xlink:href="#NotoSansSC-Thin-29" transform="translate(1002.999817 0)"/>
     </g>
    </g>
   </g>
   <g id="patch_30">
    <path d="M 58.234063 294.618437 
L 58.234063 37.710938 
" style="fill: none; stroke: #000000; stroke-width: 0.8; stroke-linejoin: miter; stroke-linecap: square"/>
   </g>
   <g id="patch_31">
    <path d="M 58.234063 294.618437 
L 705.741562 294.618437 
" style="fill: none; stroke: #000000; stroke-width: 0.8; stroke-linejoin: miter; stroke-linecap: square"/>
   </g>
   <g id="text_37">
    <!-- 历年论文收录趋势 (Annual Paper Collection Trend) -->
    <g transform="translate(214.996797 19.710938) scale(0.15 -0.15)">
     <defs>
      <path id="NotoSansSC-Thin-5386" d="M 941 4934 
L 6029 4934 
L 6029 4749 
L 941 4749 
L 941 4934 
z
M 851 4934 
L 1043 4934 
L 1043 3130 
Q 1043 2746 1024 2294 
Q 1005 1843 944 1369 
Q 883 896 768 438 
Q 653 -19 461 -416 
Q 448 -397 416 -374 
Q 384 -352 355 -329 
Q 326 -307 301 -301 
Q 493 90 601 531 
Q 710 973 764 1427 
Q 819 1882 835 2317 
Q 851 2752 851 3130 
L 851 4934 
z
M 1606 3162 
L 5478 3162 
L 5478 2976 
L 1606 2976 
L 1606 3162 
z
M 5402 3162 
L 5587 3162 
Q 5587 3162 5587 3136 
Q 5587 3110 5587 3081 
Q 5587 3053 5587 3034 
Q 5542 2189 5494 1603 
Q 5446 1018 5392 643 
Q 5338 269 5270 61 
Q 5203 -147 5114 -237 
Q 5037 -320 4947 -352 
Q 4858 -384 4710 -390 
Q 4570 -397 4298 -387 
Q 4026 -378 3725 -352 
Q 3718 -307 3705 -256 
Q 3693 -205 3667 -160 
Q 4006 -192 4288 -198 
Q 4570 -205 4672 -205 
Q 4781 -211 4841 -195 
Q 4902 -179 4947 -128 
Q 5030 -51 5094 150 
Q 5158 352 5209 729 
Q 5261 1107 5309 1692 
Q 5357 2278 5402 3117 
L 5402 3162 
z
M 3219 4365 
L 3405 4365 
Q 3392 3693 3357 3085 
Q 3322 2477 3219 1945 
Q 3117 1414 2909 969 
Q 2701 525 2352 173 
Q 2003 -179 1472 -422 
Q 1453 -397 1408 -358 
Q 1363 -320 1331 -294 
Q 1856 -58 2198 284 
Q 2541 627 2742 1062 
Q 2944 1498 3043 2016 
Q 3142 2534 3174 3123 
Q 3206 3712 3219 4365 
z
" transform="scale(0.015625)"/>
      <path id="NotoSansSC-Thin-6536" d="M 3462 4013 
L 6035 4013 
L 6035 3827 
L 3462 3827 
L 3462 4013 
z
M 3706 5312 
L 3898 5280 
Q 3782 4678 3616 4131 
Q 3450 3584 3229 3113 
Q 3008 2643 2726 2272 
Q 2714 2291 2685 2316 
Q 2656 2342 2627 2368 
Q 2598 2394 2573 2406 
Q 2854 2752 3068 3209 
Q 3283 3667 3443 4201 
Q 3603 4736 3706 5312 
z
M 5274 3955 
L 5472 3923 
Q 5286 2835 4956 2009 
Q 4627 1184 4099 582 
Q 3571 -19 2778 -442 
Q 2765 -422 2742 -393 
Q 2720 -365 2697 -333 
Q 2675 -301 2650 -282 
Q 3437 109 3955 694 
Q 4474 1280 4787 2089 
Q 5101 2899 5274 3955 
z
M 3514 3840 
Q 3725 2918 4077 2099 
Q 4429 1280 4931 665 
Q 5434 51 6093 -275 
Q 6067 -294 6038 -320 
Q 6010 -346 5987 -371 
Q 5965 -397 5946 -422 
Q 5286 -77 4780 553 
Q 4275 1184 3920 2016 
Q 3565 2848 3347 3802 
L 3514 3840 
z
M 2170 5222 
L 2362 5222 
L 2362 -454 
L 2170 -454 
L 2170 5222 
z
M 582 800 
L 576 992 
L 717 1126 
L 2253 1677 
Q 2253 1632 2262 1581 
Q 2272 1530 2278 1498 
Q 1741 1293 1417 1168 
Q 1094 1043 928 972 
Q 762 902 691 867 
Q 621 832 582 800 
z
M 582 800 
Q 570 826 550 858 
Q 531 890 512 922 
Q 493 954 474 979 
Q 525 1011 608 1107 
Q 691 1203 691 1389 
L 691 4582 
L 877 4582 
L 877 1094 
Q 877 1094 832 1062 
Q 787 1030 729 979 
Q 672 928 627 880 
Q 582 832 582 800 
z
" transform="scale(0.015625)"/>
      <path id="NotoSansSC-Thin-5f55" d="M 461 2854 
L 5997 2854 
L 5997 2669 
L 461 2669 
L 461 2854 
z
M 3117 2790 
L 3309 2790 
L 3309 -134 
Q 3309 -269 3264 -329 
Q 3219 -390 3110 -416 
Q 3008 -442 2777 -448 
Q 2547 -454 2163 -448 
Q 2157 -416 2131 -361 
Q 2106 -307 2086 -262 
Q 2310 -269 2496 -272 
Q 2682 -275 2810 -272 
Q 2938 -269 2989 -269 
Q 3066 -262 3091 -233 
Q 3117 -205 3117 -141 
L 3117 2790 
z
M 3302 2451 
Q 3539 1862 3945 1366 
Q 4352 870 4899 515 
Q 5446 160 6086 -19 
Q 6067 -38 6041 -64 
Q 6016 -90 5993 -118 
Q 5971 -147 5958 -173 
Q 5318 19 4771 387 
Q 4224 755 3808 1267 
Q 3392 1779 3142 2400 
L 3302 2451 
z
M 5286 2330 
L 5446 2214 
Q 5248 2029 4998 1830 
Q 4749 1632 4496 1453 
Q 4243 1274 4019 1133 
L 3885 1248 
Q 4109 1389 4365 1574 
Q 4621 1760 4867 1961 
Q 5114 2163 5286 2330 
z
M 973 2176 
L 1107 2291 
Q 1318 2176 1542 2025 
Q 1766 1875 1964 1728 
Q 2163 1581 2285 1453 
L 2150 1312 
Q 2029 1440 1833 1593 
Q 1638 1747 1414 1900 
Q 1190 2054 973 2176 
z
M 538 230 
Q 864 365 1299 550 
Q 1734 736 2220 944 
Q 2707 1152 3194 1363 
L 3232 1203 
Q 2778 1005 2310 797 
Q 1843 589 1414 403 
Q 986 218 634 64 
L 538 230 
z
M 1114 3885 
L 5037 3885 
L 5037 3693 
L 1114 3693 
L 1114 3885 
z
M 4960 4915 
L 4979 4915 
L 5018 4928 
L 5152 4915 
Q 5146 4621 5126 4230 
Q 5107 3840 5081 3440 
Q 5056 3040 5030 2707 
L 4845 2714 
Q 4864 2963 4883 3260 
Q 4902 3558 4918 3862 
Q 4934 4166 4944 4432 
Q 4954 4698 4960 4877 
L 4960 4915 
z
M 941 4915 
L 5011 4915 
L 5011 4723 
L 941 4723 
L 941 4915 
z
" transform="scale(0.015625)"/>
      <path id="NotoSansSC-Thin-8d8b" d="M 3930 5210 
L 4128 5184 
Q 3981 4749 3721 4240 
Q 3462 3731 3066 3302 
Q 3040 3334 2995 3363 
Q 2950 3392 2912 3405 
Q 3290 3821 3542 4313 
Q 3795 4806 3930 5210 
z
M 3853 4672 
L 5184 4672 
L 5184 4486 
L 3680 4486 
L 3853 4672 
z
M 595 4352 
L 2803 4352 
L 2803 4166 
L 595 4166 
L 595 4352 
z
M 384 3238 
L 2931 3238 
L 2931 3046 
L 384 3046 
L 384 3238 
z
M 1843 1965 
L 2925 1965 
L 2925 1779 
L 1843 1779 
L 1843 1965 
z
M 1664 5318 
L 1850 5318 
L 1850 3117 
L 1664 3117 
L 1664 5318 
z
M 1786 3117 
L 1971 3117 
L 1971 237 
L 1786 237 
L 1786 3117 
z
M 979 1555 
Q 1146 1043 1421 729 
Q 1696 416 2077 253 
Q 2458 90 2938 35 
Q 3418 -19 3994 -19 
Q 4038 -19 4246 -19 
Q 4454 -19 4745 -19 
Q 5037 -19 5331 -19 
Q 5626 -19 5850 -19 
Q 6074 -19 6138 -19 
Q 6118 -45 6099 -80 
Q 6080 -115 6064 -150 
Q 6048 -186 6042 -211 
L 5606 -211 
L 3994 -211 
Q 3379 -211 2876 -147 
Q 2374 -83 1984 93 
Q 1594 269 1309 601 
Q 1024 934 845 1478 
L 979 1555 
z
M 845 2464 
L 1043 2451 
Q 1024 1837 969 1312 
Q 915 787 796 355 
Q 678 -77 454 -416 
Q 442 -403 410 -377 
Q 378 -352 346 -326 
Q 314 -301 288 -288 
Q 512 26 624 445 
Q 736 864 784 1376 
Q 832 1888 845 2464 
z
M 3347 2227 
L 5574 2227 
L 5574 2042 
L 3347 2042 
L 3347 2227 
z
M 3315 3341 
L 5651 3341 
L 5651 870 
L 3142 870 
L 3142 1062 
L 5466 1062 
L 5466 3149 
L 3315 3149 
L 3315 3341 
z
M 5158 4672 
L 5190 4672 
L 5229 4691 
L 5357 4634 
Q 5235 4339 5056 3952 
Q 4877 3565 4710 3238 
L 4506 3302 
Q 4621 3514 4745 3763 
Q 4870 4013 4979 4246 
Q 5088 4480 5158 4634 
L 5158 4672 
z
" transform="scale(0.015625)"/>
      <path id="NotoSansSC-Thin-52bf" d="M 371 3392 
Q 653 3450 1024 3520 
Q 1395 3590 1820 3680 
Q 2246 3770 2682 3859 
L 2694 3661 
Q 2093 3539 1494 3414 
Q 896 3290 442 3194 
L 371 3392 
z
M 454 4614 
L 2662 4614 
L 2662 4429 
L 454 4429 
L 454 4614 
z
M 1530 5318 
L 1722 5318 
L 1722 2554 
Q 1722 2445 1686 2393 
Q 1651 2342 1562 2317 
Q 1478 2291 1302 2284 
Q 1126 2278 819 2285 
Q 813 2317 790 2368 
Q 768 2419 742 2451 
Q 998 2445 1184 2445 
Q 1370 2445 1427 2451 
Q 1530 2451 1530 2547 
L 1530 5318 
z
M 2790 4627 
L 5197 4627 
L 5197 4442 
L 2790 4442 
L 2790 4627 
z
M 2848 3872 
L 2970 4000 
Q 3290 3821 3635 3593 
Q 3981 3366 4291 3148 
Q 4602 2931 4800 2758 
L 4678 2605 
Q 4480 2778 4173 3002 
Q 3866 3226 3517 3456 
Q 3168 3686 2848 3872 
z
M 5101 4627 
L 5293 4627 
Q 5286 3866 5305 3389 
Q 5325 2912 5414 2691 
Q 5504 2470 5696 2470 
Q 5805 2470 5843 2592 
Q 5882 2714 5901 3066 
Q 5946 3040 5990 3017 
Q 6035 2995 6080 2982 
Q 6067 2707 6022 2553 
Q 5978 2400 5898 2339 
Q 5818 2278 5690 2278 
Q 5466 2278 5341 2435 
Q 5216 2592 5165 2893 
Q 5114 3194 5107 3629 
Q 5101 4064 5101 4627 
z
M 3923 5318 
L 4109 5318 
Q 4090 4691 4026 4204 
Q 3962 3718 3814 3350 
Q 3667 2982 3398 2720 
Q 3130 2458 2694 2278 
Q 2675 2310 2633 2348 
Q 2592 2387 2560 2406 
Q 2982 2579 3244 2828 
Q 3507 3078 3648 3430 
Q 3789 3782 3846 4249 
Q 3904 4717 3923 5318 
z
M 640 1728 
L 5299 1728 
L 5299 1542 
L 640 1542 
L 640 1728 
z
M 5242 1728 
L 5440 1728 
Q 5440 1728 5437 1705 
Q 5434 1683 5434 1654 
Q 5434 1626 5427 1606 
Q 5363 1011 5299 636 
Q 5235 262 5161 64 
Q 5088 -134 4986 -224 
Q 4915 -288 4832 -310 
Q 4749 -333 4608 -339 
Q 4474 -346 4202 -336 
Q 3930 -326 3622 -301 
Q 3616 -256 3603 -205 
Q 3590 -154 3558 -115 
Q 3891 -141 4179 -150 
Q 4467 -160 4570 -160 
Q 4678 -160 4736 -150 
Q 4794 -141 4838 -102 
Q 4922 -32 4992 163 
Q 5062 358 5123 729 
Q 5184 1101 5242 1690 
L 5242 1728 
z
M 2899 2253 
L 3098 2253 
Q 3014 1754 2854 1331 
Q 2694 909 2400 566 
Q 2106 224 1632 -32 
Q 1158 -288 448 -442 
Q 435 -410 403 -358 
Q 371 -307 339 -282 
Q 896 -166 1302 16 
Q 1709 198 1987 432 
Q 2266 666 2448 950 
Q 2630 1235 2736 1561 
Q 2842 1888 2899 2253 
z
" transform="scale(0.015625)"/>
      <path id="NotoSansSC-Thin-41" d="M 70 0 
L 1728 4646 
L 1939 4646 
L 3603 0 
L 3347 0 
L 2381 2784 
Q 2234 3206 2106 3587 
Q 1978 3968 1850 4403 
L 1824 4403 
Q 1696 3968 1565 3587 
Q 1434 3206 1286 2784 
L 307 0 
L 70 0 
z
M 787 1651 
L 787 1856 
L 2861 1856 
L 2861 1651 
L 787 1651 
z
" transform="scale(0.015625)"/>
      <path id="NotoSansSC-Thin-6c" d="M 1018 -83 
Q 909 -83 832 -35 
Q 755 13 713 115 
Q 672 218 672 378 
L 672 5082 
L 902 5082 
L 902 339 
Q 902 237 940 182 
Q 979 128 1043 128 
Q 1062 128 1088 131 
Q 1114 134 1165 141 
L 1210 -58 
Q 1165 -64 1126 -73 
Q 1088 -83 1018 -83 
z
" transform="scale(0.015625)"/>
      <path id="NotoSansSC-Thin-63" d="M 1888 -83 
Q 1459 -83 1116 125 
Q 774 333 576 726 
Q 378 1120 378 1677 
Q 378 2246 589 2643 
Q 800 3040 1145 3248 
Q 1491 3456 1894 3456 
Q 2240 3456 2477 3325 
Q 2714 3194 2880 3034 
L 2733 2867 
Q 2566 3027 2361 3136 
Q 2157 3245 1894 3245 
Q 1536 3245 1248 3046 
Q 960 2848 790 2496 
Q 621 2144 621 1677 
Q 621 1216 781 867 
Q 941 518 1225 323 
Q 1510 128 1894 128 
Q 2176 128 2413 246 
Q 2650 365 2829 531 
L 2963 365 
Q 2752 179 2483 48 
Q 2214 -83 1888 -83 
z
" transform="scale(0.015625)"/>
      <path id="NotoSansSC-Thin-69" d="M 672 0 
L 672 3373 
L 902 3373 
L 902 0 
L 672 0 
z
M 794 4224 
Q 691 4224 627 4294 
Q 563 4365 563 4486 
Q 563 4595 627 4662 
Q 691 4730 794 4730 
Q 890 4730 957 4662 
Q 1024 4595 1024 4486 
Q 1024 4365 957 4294 
Q 890 4224 794 4224 
z
" transform="scale(0.015625)"/>
      <path id="NotoSansSC-Thin-54" d="M 1709 0 
L 1709 4435 
L 211 4435 
L 211 4646 
L 3456 4646 
L 3456 4435 
L 1958 4435 
L 1958 0 
L 1709 0 
z
" transform="scale(0.015625)"/>
      <path id="NotoSansSC-Thin-64" d="M 1773 -83 
Q 1350 -83 1036 118 
Q 723 320 550 713 
Q 378 1107 378 1677 
Q 378 2221 586 2621 
Q 794 3021 1136 3238 
Q 1478 3456 1888 3456 
Q 2195 3456 2432 3347 
Q 2669 3238 2925 3034 
L 2906 3667 
L 2906 5082 
L 3136 5082 
L 3136 0 
L 2944 0 
L 2912 448 
L 2899 448 
Q 2688 237 2406 77 
Q 2125 -83 1773 -83 
z
M 1792 128 
Q 2086 128 2358 281 
Q 2630 435 2906 710 
L 2906 2784 
Q 2630 3034 2384 3139 
Q 2138 3245 1875 3245 
Q 1523 3245 1238 3033 
Q 954 2822 787 2467 
Q 621 2112 621 1677 
Q 621 1216 758 867 
Q 896 518 1158 323 
Q 1421 128 1792 128 
z
" transform="scale(0.015625)"/>
     </defs>
     <use xlink:href="#NotoSansSC-Thin-5386"/>
     <use xlink:href="#NotoSansSC-Thin-5e74" transform="translate(99.999985 0)"/>
     <use xlink:href="#NotoSansSC-Thin-8bba" transform="translate(199.999969 0)"/>
     <use xlink:href="#NotoSansSC-Thin-6587" transform="translate(299.999954 0)"/>
     <use xlink:href="#NotoSansSC-Thin-6536" transform="translate(399.999939 0)"/>
     <use xlink:href="#NotoSansSC-Thin-5f55" transform="translate(499.999924 0)"/>
     <use xlink:href="#NotoSansSC-Thin-8d8b" transform="translate(599.999908 0)"/>
     <use xlink:href="#NotoSansSC-Thin-52bf" transform="translate(699.999893 0)"/>
     <use xlink:href="#NotoSansSC-Thin-20" transform="translate(799.999878 0)"/>
     <use xlink:href="#NotoSansSC-Thin-28" transform="translate(821.999863 0)"/>
     <use xlink:href="#NotoSansSC-Thin-41" transform="translate(851.899857 0)"/>
     <use xlink:href="#NotoSansSC-Thin-6e" transform="translate(909.29985 0)"/>
     <use xlink:href="#NotoSansSC-Thin-6e" transform="translate(967.299835 0)"/>
     <use xlink:href="#NotoSansSC-Thin-75" transform="translate(1025.29982 0)"/>
     <use xlink:href="#NotoSansSC-Thin-61" transform="translate(1082.999817 0)"/>
     <use xlink:href="#NotoSansSC-Thin-6c" transform="translate(1136.599808 0)"/>
     <use xlink:href="#NotoSansSC-Thin-20" transform="translate(1161.999802 0)"/>
     <use xlink:href="#NotoSansSC-Thin-50" transform="translate(1183.999786 0)"/>
     <use xlink:href="#NotoSansSC-Thin-61" transform="translate(1243.799774 0)"/>
     <use xlink:href="#NotoSansSC-Thin-70" transform="translate(1297.399765 0)"/>
     <use xlink:href="#NotoSansSC-Thin-65" transform="translate(1356.89975 0)"/>
     <use xlink:href="#NotoSansSC-Thin-72" transform="translate(1409.599747 0)"/>
     <use xlink:href="#NotoSansSC-Thin-20" transform="translate(1443.499741 0)"/>
     <use xlink:href="#NotoSansSC-Thin-43" transform="translate(1465.499725 0)"/>
     <use xlink:href="#NotoSansSC-Thin-6f" transform="translate(1527.399719 0)"/>
     <use xlink:href="#NotoSansSC-Thin-6c" transform="translate(1585.99971 0)"/>
     <use xlink:href="#NotoSansSC-Thin-6c" transform="translate(1611.399704 0)"/>
     <use xlink:href="#NotoSansSC-Thin-65" transform="translate(1636.799698 0)"/>
     <use xlink:href="#NotoSansSC-Thin-63" transform="translate(1689.499695 0)"/>
     <use xlink:href="#NotoSansSC-Thin-74" transform="translate(1738.699692 0)"/>
     <use xlink:href="#NotoSansSC-Thin-69" transform="translate(1772.099686 0)"/>
     <use xlink:href="#NotoSansSC-Thin-6f" transform="translate(1796.59967 0)"/>
     <use xlink:href="#NotoSansSC-Thin-6e" transform="translate(1855.199661 0)"/>
     <use xlink:href="#NotoSansSC-Thin-20" transform="translate(1913.199646 0)"/>
     <use xlink:href="#NotoSansSC-Thin-54" transform="translate(1935.199631 0)"/>
     <use xlink:href="#NotoSansSC-Thin-72" transform="translate(1992.499619 0)"/>
     <use xlink:href="#NotoSansSC-Thin-65" transform="translate(2026.399612 0)"/>
     <use xlink:href="#NotoSansSC-Thin-6e" transform="translate(2079.099609 0)"/>
     <use xlink:href="#NotoSansSC-Thin-64" transform="translate(2137.099594 0)"/>
     <use xlink:href="#NotoSansSC-Thin-29" transform="translate(2196.599579 0)"/>
    </g>
   </g>
  </g>
 </g>
 <defs>
  <clipPath id="pbeeeabd6ab">
   <rect x="58.234063" y="37.710938" width="647.5075" height="256.9075"/>
  </clipPath>
 </defs>
</svg>
