<?xml version="1.0" encoding="utf-8" standalone="no"?>
<!DOCTYPE svg PUBLIC "-//W3C//DTD SVG 1.1//EN"
  "http://www.w3.org/Graphics/SVG/1.1/DTD/svg11.dtd">
<svg xmlns:xlink="http://www.w3.org/1999/xlink" width="712.896562pt" height="337.392656pt" viewBox="0 0 712.896562 337.392656" xmlns="http://www.w3.org/2000/svg" version="1.1">
 <metadata>
  <rdf:RDF xmlns:dc="http://purl.org/dc/elements/1.1/" xmlns:cc="http://creativecommons.org/ns#" xmlns:rdf="http://www.w3.org/1999/02/22-rdf-syntax-ns#">
   <cc:Work>
    <dc:type rdf:resource="http://purl.org/dc/dcmitype/StillImage"/>
    <dc:date>2026-06-04T13:52:36.022385</dc:date>
    <dc:format>image/svg+xml</dc:format>
    <dc:creator>
     <cc:Agent>
      <dc:title>Matplotlib v3.10.9, https://matplotlib.org/</dc:title>
     </cc:Agent>
    </dc:creator>
   </cc:Work>
  </rdf:RDF>
 </metadata>
 <defs>
  <style type="text/css">*{stroke-linejoin: round; stroke-linecap: butt}</style>
 </defs>
 <g id="figure_1">
  <g id="patch_1">
   <path d="M 0 337.392656 
L 712.896562 337.392656 
L 712.896562 0 
L 0 0 
z
" style="fill: #ffffff"/>
  </g>
  <g id="axes_1">
   <g id="patch_2">
    <path d="M 55.489063 299.083281 
L 705.696563 299.083281 
L 705.696563 37.563281 
L 55.489063 37.563281 
z
" style="fill: #ffffff"/>
   </g>
   <g id="patch_3">
    <path d="M 85.043949 299.083281 
L 99.460967 299.083281 
L 99.460967 298.419744 
L 85.043949 298.419744 
z
" clip-path="url(#pc7302cb93d)" style="fill: #2e5c8a; stroke: #ffffff; stroke-width: 0.5; stroke-linejoin: miter"/>
   </g>
   <g id="patch_4">
    <path d="M 107.223976 299.083281 
L 121.640994 299.083281 
L 121.640994 298.223302 
L 107.223976 298.223302 
z
" clip-path="url(#pc7302cb93d)" style="fill: #2e5c8a; stroke: #ffffff; stroke-width: 0.5; stroke-linejoin: miter"/>
   </g>
   <g id="patch_5">
    <path d="M 129.404003 299.083281 
L 143.821021 299.083281 
L 143.821021 298.179648 
L 129.404003 298.179648 
z
" clip-path="url(#pc7302cb93d)" style="fill: #2e5c8a; stroke: #ffffff; stroke-width: 0.5; stroke-linejoin: miter"/>
   </g>
   <g id="patch_6">
    <path d="M 151.584031 299.083281 
L 166.001048 299.083281 
L 166.001048 298.218936 
L 151.584031 298.218936 
z
" clip-path="url(#pc7302cb93d)" style="fill: #2e5c8a; stroke: #ffffff; stroke-width: 0.5; stroke-linejoin: miter"/>
   </g>
   <g id="patch_7">
    <path d="M 173.764058 299.083281 
L 188.181076 299.083281 
L 188.181076 298.179648 
L 173.764058 298.179648 
z
" clip-path="url(#pc7302cb93d)" style="fill: #2e5c8a; stroke: #ffffff; stroke-width: 0.5; stroke-linejoin: miter"/>
   </g>
   <g id="patch_8">
    <path d="M 195.944085 299.083281 
L 210.361103 299.083281 
L 210.361103 298.179648 
L 195.944085 298.179648 
z
" clip-path="url(#pc7302cb93d)" style="fill: #2e5c8a; stroke: #ffffff; stroke-width: 0.5; stroke-linejoin: miter"/>
   </g>
   <g id="patch_9">
    <path d="M 218.124113 299.083281 
L 232.54113 299.083281 
L 232.54113 298.192744 
L 218.124113 298.192744 
z
" clip-path="url(#pc7302cb93d)" style="fill: #2e5c8a; stroke: #ffffff; stroke-width: 0.5; stroke-linejoin: miter"/>
   </g>
   <g id="patch_10">
    <path d="M 240.30414 299.083281 
L 254.721158 299.083281 
L 254.721158 298.135994 
L 240.30414 298.135994 
z
" clip-path="url(#pc7302cb93d)" style="fill: #2e5c8a; stroke: #ffffff; stroke-width: 0.5; stroke-linejoin: miter"/>
   </g>
   <g id="patch_11">
    <path d="M 262.484167 299.083281 
L 276.901185 299.083281 
L 276.901185 297.991937 
L 262.484167 297.991937 
z
" clip-path="url(#pc7302cb93d)" style="fill: #2e5c8a; stroke: #ffffff; stroke-width: 0.5; stroke-linejoin: miter"/>
   </g>
   <g id="patch_12">
    <path d="M 284.664194 299.083281 
L 299.081212 299.083281 
L 299.081212 297.939552 
L 284.664194 297.939552 
z
" clip-path="url(#pc7302cb93d)" style="fill: #2e5c8a; stroke: #ffffff; stroke-width: 0.5; stroke-linejoin: miter"/>
   </g>
   <g id="patch_13">
    <path d="M 306.844222 299.083281 
L 321.261239 299.083281 
L 321.261239 297.808591 
L 306.844222 297.808591 
z
" clip-path="url(#pc7302cb93d)" style="fill: #2e5c8a; stroke: #ffffff; stroke-width: 0.5; stroke-linejoin: miter"/>
   </g>
   <g id="patch_14">
    <path d="M 329.024249 299.083281 
L 343.441267 299.083281 
L 343.441267 297.747475 
L 329.024249 297.747475 
z
" clip-path="url(#pc7302cb93d)" style="fill: #2e5c8a; stroke: #ffffff; stroke-width: 0.5; stroke-linejoin: miter"/>
   </g>
   <g id="patch_15">
    <path d="M 351.204276 299.083281 
L 365.621294 299.083281 
L 365.621294 297.468091 
L 351.204276 297.468091 
z
" clip-path="url(#pc7302cb93d)" style="fill: #2e5c8a; stroke: #ffffff; stroke-width: 0.5; stroke-linejoin: miter"/>
   </g>
   <g id="patch_16">
    <path d="M 373.384304 299.083281 
L 387.801321 299.083281 
L 387.801321 293.47377 
L 373.384304 293.47377 
z
" clip-path="url(#pc7302cb93d)" style="fill: #2e5c8a; stroke: #ffffff; stroke-width: 0.5; stroke-linejoin: miter"/>
   </g>
   <g id="patch_17">
    <path d="M 395.564331 299.083281 
L 409.981349 299.083281 
L 409.981349 294.931806 
L 395.564331 294.931806 
z
" clip-path="url(#pc7302cb93d)" style="fill: #2e5c8a; stroke: #ffffff; stroke-width: 0.5; stroke-linejoin: miter"/>
   </g>
   <g id="patch_18">
    <path d="M 417.744358 299.083281 
L 432.161376 299.083281 
L 432.161376 292.399887 
L 417.744358 292.399887 
z
" clip-path="url(#pc7302cb93d)" style="fill: #2e5c8a; stroke: #ffffff; stroke-width: 0.5; stroke-linejoin: miter"/>
   </g>
   <g id="patch_19">
    <path d="M 439.924386 299.083281 
L 454.341403 299.083281 
L 454.341403 293.792443 
L 439.924386 293.792443 
z
" clip-path="url(#pc7302cb93d)" style="fill: #2e5c8a; stroke: #ffffff; stroke-width: 0.5; stroke-linejoin: miter"/>
   </g>
   <g id="patch_20">
    <path d="M 462.104413 299.083281 
L 476.521431 299.083281 
L 476.521431 289.990198 
L 462.104413 289.990198 
z
" clip-path="url(#pc7302cb93d)" style="fill: #2e5c8a; stroke: #ffffff; stroke-width: 0.5; stroke-linejoin: miter"/>
   </g>
   <g id="patch_21">
    <path d="M 484.28444 299.083281 
L 498.701458 299.083281 
L 498.701458 291.291081 
L 484.28444 291.291081 
z
" clip-path="url(#pc7302cb93d)" style="fill: #2e5c8a; stroke: #ffffff; stroke-width: 0.5; stroke-linejoin: miter"/>
   </g>
   <g id="patch_22">
    <path d="M 506.464467 299.083281 
L 520.881485 299.083281 
L 520.881485 219.690144 
L 506.464467 219.690144 
z
" clip-path="url(#pc7302cb93d)" style="fill: #2e5c8a; stroke: #ffffff; stroke-width: 0.5; stroke-linejoin: miter"/>
   </g>
   <g id="patch_23">
    <path d="M 528.644495 299.083281 
L 543.061512 299.083281 
L 543.061512 186.609306 
L 528.644495 186.609306 
z
" clip-path="url(#pc7302cb93d)" style="fill: #2e5c8a; stroke: #ffffff; stroke-width: 0.5; stroke-linejoin: miter"/>
   </g>
   <g id="patch_24">
    <path d="M 550.824522 299.083281 
L 565.24154 299.083281 
L 565.24154 180.956141 
L 550.824522 180.956141 
z
" clip-path="url(#pc7302cb93d)" style="fill: #2e5c8a; stroke: #ffffff; stroke-width: 0.5; stroke-linejoin: miter"/>
   </g>
   <g id="patch_25">
    <path d="M 573.004549 299.083281 
L 587.421567 299.083281 
L 587.421567 177.865453 
L 573.004549 177.865453 
z
" clip-path="url(#pc7302cb93d)" style="fill: #2e5c8a; stroke: #ffffff; stroke-width: 0.5; stroke-linejoin: miter"/>
   </g>
   <g id="patch_26">
    <path d="M 595.184577 299.083281 
L 609.601594 299.083281 
L 609.601594 150.079819 
L 595.184577 150.079819 
z
" clip-path="url(#pc7302cb93d)" style="fill: #2e5c8a; stroke: #ffffff; stroke-width: 0.5; stroke-linejoin: miter"/>
   </g>
   <g id="patch_27">
    <path d="M 617.364604 299.083281 
L 631.781622 299.083281 
L 631.781622 115.401253 
L 617.364604 115.401253 
z
" clip-path="url(#pc7302cb93d)" style="fill: #2e5c8a; stroke: #ffffff; stroke-width: 0.5; stroke-linejoin: miter"/>
   </g>
   <g id="patch_28">
    <path d="M 639.544631 299.083281 
L 653.961649 299.083281 
L 653.961649 50.016615 
L 639.544631 50.016615 
z
" clip-path="url(#pc7302cb93d)" style="fill: #2e5c8a; stroke: #ffffff; stroke-width: 0.5; stroke-linejoin: miter"/>
   </g>
   <g id="patch_29">
    <path d="M 661.724658 299.083281 
L 676.141676 299.083281 
L 676.141676 244.67757 
L 661.724658 244.67757 
z
" clip-path="url(#pc7302cb93d)" style="fill: #2e5c8a; stroke: #ffffff; stroke-width: 0.5; stroke-linejoin: miter"/>
   </g>
   <g id="matplotlib.axis_1">
    <g id="xtick_1">
     <g id="line2d_1">
      <defs>
       <path id="m7c6f53489b" d="M 0 0 
L 0 3.5 
" style="stroke: #000000; stroke-width: 0.8"/>
      </defs>
      <g>
       <use xlink:href="#m7c6f53489b" x="92.252458" y="299.083281" style="stroke: #000000; stroke-width: 0.8"/>
      </g>
     </g>
     <g id="text_1">
      <!-- 2000 -->
      <g style="fill: #1a1a1a" transform="translate(82.252458 312.958281) scale(0.1 -0.1)">
       <defs>
        <path id="SimHei-32" d="M 300 250 
Q 325 625 650 925 
Q 975 1225 1475 1862 
Q 1975 2500 2125 2850 
Q 2275 3200 2237 3450 
Q 2200 3700 2000 3862 
Q 1800 4025 1537 4000 
Q 1275 3975 1037 3800 
Q 800 3625 675 3275 
L 200 3350 
Q 400 3925 712 4187 
Q 1025 4450 1450 4475 
Q 1700 4500 1900 4462 
Q 2100 4425 2312 4287 
Q 2525 4150 2662 3875 
Q 2800 3600 2762 3212 
Q 2725 2825 2375 2287 
Q 2025 1750 1025 600 
L 2825 600 
L 2825 150 
L 300 150 
L 300 250 
z
" transform="scale(0.015625)"/>
        <path id="SimHei-30" d="M 225 2537 
Q 250 3200 412 3587 
Q 575 3975 875 4225 
Q 1175 4475 1612 4475 
Q 2050 4475 2375 4112 
Q 2700 3750 2800 3200 
Q 2900 2650 2862 1937 
Q 2825 1225 2612 775 
Q 2400 325 1975 150 
Q 1550 -25 1125 187 
Q 700 400 525 750 
Q 350 1100 275 1487 
Q 200 1875 225 2537 
z
M 750 2687 
Q 675 2000 800 1462 
Q 925 925 1212 700 
Q 1500 475 1800 612 
Q 2100 750 2237 1162 
Q 2375 1575 2375 2062 
Q 2375 2550 2337 2950 
Q 2300 3350 2112 3675 
Q 1925 4000 1612 4012 
Q 1300 4025 1062 3700 
Q 825 3375 750 2687 
z
" transform="scale(0.015625)"/>
       </defs>
       <use xlink:href="#SimHei-32"/>
       <use xlink:href="#SimHei-30" transform="translate(50 0)"/>
       <use xlink:href="#SimHei-30" transform="translate(100 0)"/>
       <use xlink:href="#SimHei-30" transform="translate(150 0)"/>
      </g>
     </g>
    </g>
    <g id="xtick_2">
     <g id="line2d_2">
      <g>
       <use xlink:href="#m7c6f53489b" x="114.432485" y="299.083281" style="stroke: #000000; stroke-width: 0.8"/>
      </g>
     </g>
     <g id="text_2">
      <!-- 2001 -->
      <g style="fill: #1a1a1a" transform="translate(104.432485 312.958281) scale(0.1 -0.1)">
       <defs>
        <path id="SimHei-31" d="M 1400 3600 
Q 1075 3275 575 2975 
L 575 3450 
Q 1200 3875 1600 4450 
L 1900 4450 
L 1900 150 
L 1400 150 
L 1400 3600 
z
" transform="scale(0.015625)"/>
       </defs>
       <use xlink:href="#SimHei-32"/>
       <use xlink:href="#SimHei-30" transform="translate(50 0)"/>
       <use xlink:href="#SimHei-30" transform="translate(100 0)"/>
       <use xlink:href="#SimHei-31" transform="translate(150 0)"/>
      </g>
     </g>
    </g>
    <g id="xtick_3">
     <g id="line2d_3">
      <g>
       <use xlink:href="#m7c6f53489b" x="136.612512" y="299.083281" style="stroke: #000000; stroke-width: 0.8"/>
      </g>
     </g>
     <g id="text_3">
      <!-- 2002 -->
      <g style="fill: #1a1a1a" transform="translate(126.612512 312.958281) scale(0.1 -0.1)">
       <use xlink:href="#SimHei-32"/>
       <use xlink:href="#SimHei-30" transform="translate(50 0)"/>
       <use xlink:href="#SimHei-30" transform="translate(100 0)"/>
       <use xlink:href="#SimHei-32" transform="translate(150 0)"/>
      </g>
     </g>
    </g>
    <g id="xtick_4">
     <g id="line2d_4">
      <g>
       <use xlink:href="#m7c6f53489b" x="158.79254" y="299.083281" style="stroke: #000000; stroke-width: 0.8"/>
      </g>
     </g>
     <g id="text_4">
      <!-- 2003 -->
      <g style="fill: #1a1a1a" transform="translate(148.79254 312.958281) scale(0.1 -0.1)">
       <defs>
        <path id="SimHei-33" d="M 250 1225 
L 700 1300 
Q 800 975 1025 762 
Q 1250 550 1587 562 
Q 1925 575 2125 837 
Q 2325 1100 2300 1437 
Q 2275 1775 2037 1962 
Q 1800 2150 1275 2225 
L 1275 2550 
Q 1800 2600 2037 2825 
Q 2275 3050 2250 3412 
Q 2225 3775 1925 3937 
Q 1625 4100 1287 3975 
Q 950 3850 750 3275 
L 300 3350 
Q 450 3800 712 4100 
Q 975 4400 1425 4450 
Q 1875 4500 2212 4337 
Q 2550 4175 2687 3837 
Q 2825 3500 2725 3100 
Q 2625 2700 2150 2400 
Q 2500 2250 2687 1950 
Q 2875 1650 2812 1162 
Q 2750 675 2375 375 
Q 2000 75 1525 87 
Q 1050 100 700 387 
Q 350 675 250 1225 
z
" transform="scale(0.015625)"/>
       </defs>
       <use xlink:href="#SimHei-32"/>
       <use xlink:href="#SimHei-30" transform="translate(50 0)"/>
       <use xlink:href="#SimHei-30" transform="translate(100 0)"/>
       <use xlink:href="#SimHei-33" transform="translate(150 0)"/>
      </g>
     </g>
    </g>
    <g id="xtick_5">
     <g id="line2d_5">
      <g>
       <use xlink:href="#m7c6f53489b" x="180.972567" y="299.083281" style="stroke: #000000; stroke-width: 0.8"/>
      </g>
     </g>
     <g id="text_5">
      <!-- 2004 -->
      <g style="fill: #1a1a1a" transform="translate(170.972567 312.958281) scale(0.1 -0.1)">
       <defs>
        <path id="SimHei-34" d="M 2000 1100 
L 75 1100 
L 75 1525 
L 2100 4450 
L 2475 4450 
L 2475 1525 
L 3075 1525 
L 3075 1100 
L 2475 1100 
L 2475 150 
L 2000 150 
L 2000 1100 
z
M 2000 1525 
L 2000 3500 
L 600 1525 
L 2000 1525 
z
" transform="scale(0.015625)"/>
       </defs>
       <use xlink:href="#SimHei-32"/>
       <use xlink:href="#SimHei-30" transform="translate(50 0)"/>
       <use xlink:href="#SimHei-30" transform="translate(100 0)"/>
       <use xlink:href="#SimHei-34" transform="translate(150 0)"/>
      </g>
     </g>
    </g>
    <g id="xtick_6">
     <g id="line2d_6">
      <g>
       <use xlink:href="#m7c6f53489b" x="203.152594" y="299.083281" style="stroke: #000000; stroke-width: 0.8"/>
      </g>
     </g>
     <g id="text_6">
      <!-- 2005 -->
      <g style="fill: #1a1a1a" transform="translate(193.152594 312.958281) scale(0.1 -0.1)">
       <defs>
        <path id="SimHei-35" d="M 550 1325 
Q 725 650 1150 575 
Q 1575 500 1837 662 
Q 2100 825 2212 1087 
Q 2325 1350 2312 1675 
Q 2300 2000 2137 2225 
Q 1975 2450 1725 2525 
Q 1475 2600 1162 2525 
Q 850 2450 650 2175 
L 225 2225 
Q 275 2375 700 4375 
L 2675 4375 
L 2675 3925 
L 1075 3925 
Q 950 3250 825 2850 
Q 1200 3025 1525 3012 
Q 1850 3000 2150 2862 
Q 2450 2725 2587 2487 
Q 2725 2250 2787 2012 
Q 2850 1775 2837 1500 
Q 2825 1225 2725 937 
Q 2625 650 2425 462 
Q 2225 275 1937 162 
Q 1650 50 1275 75 
Q 900 100 562 350 
Q 225 600 100 1200 
L 550 1325 
z
" transform="scale(0.015625)"/>
       </defs>
       <use xlink:href="#SimHei-32"/>
       <use xlink:href="#SimHei-30" transform="translate(50 0)"/>
       <use xlink:href="#SimHei-30" transform="translate(100 0)"/>
       <use xlink:href="#SimHei-35" transform="translate(150 0)"/>
      </g>
     </g>
    </g>
    <g id="xtick_7">
     <g id="line2d_7">
      <g>
       <use xlink:href="#m7c6f53489b" x="225.332621" y="299.083281" style="stroke: #000000; stroke-width: 0.8"/>
      </g>
     </g>
     <g id="text_7">
      <!-- 2006 -->
      <g style="fill: #1a1a1a" transform="translate(215.332621 312.958281) scale(0.1 -0.1)">
       <defs>
        <path id="SimHei-36" d="M 250 1612 
Q 275 1975 387 2225 
Q 500 2475 725 2850 
L 1750 4450 
L 2325 4450 
L 1275 2800 
Q 1950 2975 2350 2750 
Q 2750 2525 2887 2237 
Q 3025 1950 3037 1612 
Q 3050 1275 2937 950 
Q 2825 625 2537 362 
Q 2250 100 1737 75 
Q 1225 50 862 262 
Q 500 475 362 862 
Q 225 1250 250 1612 
z
M 1025 787 
Q 1250 550 1625 525 
Q 2000 500 2250 775 
Q 2500 1050 2500 1575 
Q 2500 2100 2187 2300 
Q 1875 2500 1487 2450 
Q 1100 2400 925 2075 
Q 750 1750 775 1387 
Q 800 1025 1025 787 
z
" transform="scale(0.015625)"/>
       </defs>
       <use xlink:href="#SimHei-32"/>
       <use xlink:href="#SimHei-30" transform="translate(50 0)"/>
       <use xlink:href="#SimHei-30" transform="translate(100 0)"/>
       <use xlink:href="#SimHei-36" transform="translate(150 0)"/>
      </g>
     </g>
    </g>
    <g id="xtick_8">
     <g id="line2d_8">
      <g>
       <use xlink:href="#m7c6f53489b" x="247.512649" y="299.083281" style="stroke: #000000; stroke-width: 0.8"/>
      </g>
     </g>
     <g id="text_8">
      <!-- 2007 -->
      <g style="fill: #1a1a1a" transform="translate(237.512649 312.958281) scale(0.1 -0.1)">
       <defs>
        <path id="SimHei-37" d="M 850 150 
Q 1300 2050 2425 3925 
L 275 3925 
L 275 4375 
L 2950 4375 
L 2950 3950 
Q 1775 2050 1400 150 
L 850 150 
z
" transform="scale(0.015625)"/>
       </defs>
       <use xlink:href="#SimHei-32"/>
       <use xlink:href="#SimHei-30" transform="translate(50 0)"/>
       <use xlink:href="#SimHei-30" transform="translate(100 0)"/>
       <use xlink:href="#SimHei-37" transform="translate(150 0)"/>
      </g>
     </g>
    </g>
    <g id="xtick_9">
     <g id="line2d_9">
      <g>
       <use xlink:href="#m7c6f53489b" x="269.692676" y="299.083281" style="stroke: #000000; stroke-width: 0.8"/>
      </g>
     </g>
     <g id="text_9">
      <!-- 2008 -->
      <g style="fill: #1a1a1a" transform="translate(259.692676 312.958281) scale(0.1 -0.1)">
       <defs>
        <path id="SimHei-38" d="M 175 1375 
Q 175 1675 325 1962 
Q 475 2250 825 2425 
Q 525 2600 425 2812 
Q 325 3025 312 3300 
Q 300 3575 387 3775 
Q 475 3975 650 4150 
Q 825 4325 1037 4387 
Q 1250 4450 1500 4450 
Q 1750 4450 1950 4400 
Q 2150 4350 2375 4187 
Q 2600 4025 2700 3725 
Q 2800 3425 2687 3025 
Q 2575 2625 2100 2400 
Q 2525 2275 2700 2012 
Q 2875 1750 2875 1375 
Q 2875 1000 2762 775 
Q 2650 550 2512 400 
Q 2375 250 2137 162 
Q 1900 75 1537 75 
Q 1175 75 912 162 
Q 650 250 475 425 
Q 300 600 237 837 
Q 175 1075 175 1375 
z
M 687 1400 
Q 675 1100 787 875 
Q 900 650 1200 587 
Q 1500 525 1825 600 
Q 2150 675 2275 950 
Q 2400 1225 2362 1500 
Q 2325 1775 2050 1962 
Q 1775 2150 1450 2125 
Q 1125 2100 912 1900 
Q 700 1700 687 1400 
z
M 775 3350 
Q 775 3100 950 2875 
Q 1125 2650 1500 2650 
Q 1875 2650 2062 2875 
Q 2250 3100 2237 3412 
Q 2225 3725 2012 3875 
Q 1800 4025 1437 4000 
Q 1075 3975 925 3787 
Q 775 3600 775 3350 
z
" transform="scale(0.015625)"/>
       </defs>
       <use xlink:href="#SimHei-32"/>
       <use xlink:href="#SimHei-30" transform="translate(50 0)"/>
       <use xlink:href="#SimHei-30" transform="translate(100 0)"/>
       <use xlink:href="#SimHei-38" transform="translate(150 0)"/>
      </g>
     </g>
    </g>
    <g id="xtick_10">
     <g id="line2d_10">
      <g>
       <use xlink:href="#m7c6f53489b" x="291.872703" y="299.083281" style="stroke: #000000; stroke-width: 0.8"/>
      </g>
     </g>
     <g id="text_10">
      <!-- 2009 -->
      <g style="fill: #1a1a1a" transform="translate(281.872703 312.958281) scale(0.1 -0.1)">
       <defs>
        <path id="SimHei-39" d="M 800 75 
Q 1350 1000 1700 1750 
Q 1075 1650 662 1912 
Q 250 2175 162 2625 
Q 75 3075 175 3437 
Q 275 3800 487 4037 
Q 700 4275 1000 4375 
Q 1300 4475 1537 4475 
Q 1775 4475 2025 4375 
Q 2275 4275 2475 4075 
Q 2675 3875 2750 3662 
Q 2825 3450 2825 3112 
Q 2825 2775 2575 2250 
Q 2325 1725 1350 75 
L 800 75 
z
M 662 2875 
Q 700 2550 937 2337 
Q 1175 2125 1450 2150 
Q 1725 2175 1887 2300 
Q 2050 2425 2200 2725 
Q 2300 3100 2250 3362 
Q 2200 3625 1987 3800 
Q 1775 3975 1525 3975 
Q 1375 4000 1137 3900 
Q 900 3800 762 3500 
Q 625 3200 662 2875 
z
" transform="scale(0.015625)"/>
       </defs>
       <use xlink:href="#SimHei-32"/>
       <use xlink:href="#SimHei-30" transform="translate(50 0)"/>
       <use xlink:href="#SimHei-30" transform="translate(100 0)"/>
       <use xlink:href="#SimHei-39" transform="translate(150 0)"/>
      </g>
     </g>
    </g>
    <g id="xtick_11">
     <g id="line2d_11">
      <g>
       <use xlink:href="#m7c6f53489b" x="314.052731" y="299.083281" style="stroke: #000000; stroke-width: 0.8"/>
      </g>
     </g>
     <g id="text_11">
      <!-- 2010 -->
      <g style="fill: #1a1a1a" transform="translate(304.052731 312.958281) scale(0.1 -0.1)">
       <use xlink:href="#SimHei-32"/>
       <use xlink:href="#SimHei-30" transform="translate(50 0)"/>
       <use xlink:href="#SimHei-31" transform="translate(100 0)"/>
       <use xlink:href="#SimHei-30" transform="translate(150 0)"/>
      </g>
     </g>
    </g>
    <g id="xtick_12">
     <g id="line2d_12">
      <g>
       <use xlink:href="#m7c6f53489b" x="336.232758" y="299.083281" style="stroke: #000000; stroke-width: 0.8"/>
      </g>
     </g>
     <g id="text_12">
      <!-- 2011 -->
      <g style="fill: #1a1a1a" transform="translate(326.232758 312.958281) scale(0.1 -0.1)">
       <use xlink:href="#SimHei-32"/>
       <use xlink:href="#SimHei-30" transform="translate(50 0)"/>
       <use xlink:href="#SimHei-31" transform="translate(100 0)"/>
       <use xlink:href="#SimHei-31" transform="translate(150 0)"/>
      </g>
     </g>
    </g>
    <g id="xtick_13">
     <g id="line2d_13">
      <g>
       <use xlink:href="#m7c6f53489b" x="358.412785" y="299.083281" style="stroke: #000000; stroke-width: 0.8"/>
      </g>
     </g>
     <g id="text_13">
      <!-- 2012 -->
      <g style="fill: #1a1a1a" transform="translate(348.412785 312.958281) scale(0.1 -0.1)">
       <use xlink:href="#SimHei-32"/>
       <use xlink:href="#SimHei-30" transform="translate(50 0)"/>
       <use xlink:href="#SimHei-31" transform="translate(100 0)"/>
       <use xlink:href="#SimHei-32" transform="translate(150 0)"/>
      </g>
     </g>
    </g>
    <g id="xtick_14">
     <g id="line2d_14">
      <g>
       <use xlink:href="#m7c6f53489b" x="380.592812" y="299.083281" style="stroke: #000000; stroke-width: 0.8"/>
      </g>
     </g>
     <g id="text_14">
      <!-- 2013 -->
      <g style="fill: #1a1a1a" transform="translate(370.592812 312.958281) scale(0.1 -0.1)">
       <use xlink:href="#SimHei-32"/>
       <use xlink:href="#SimHei-30" transform="translate(50 0)"/>
       <use xlink:href="#SimHei-31" transform="translate(100 0)"/>
       <use xlink:href="#SimHei-33" transform="translate(150 0)"/>
      </g>
     </g>
    </g>
    <g id="xtick_15">
     <g id="line2d_15">
      <g>
       <use xlink:href="#m7c6f53489b" x="402.77284" y="299.083281" style="stroke: #000000; stroke-width: 0.8"/>
      </g>
     </g>
     <g id="text_15">
      <!-- 2014 -->
      <g style="fill: #1a1a1a" transform="translate(392.77284 312.958281) scale(0.1 -0.1)">
       <use xlink:href="#SimHei-32"/>
       <use xlink:href="#SimHei-30" transform="translate(50 0)"/>
       <use xlink:href="#SimHei-31" transform="translate(100 0)"/>
       <use xlink:href="#SimHei-34" transform="translate(150 0)"/>
      </g>
     </g>
    </g>
    <g id="xtick_16">
     <g id="line2d_16">
      <g>
       <use xlink:href="#m7c6f53489b" x="424.952867" y="299.083281" style="stroke: #000000; stroke-width: 0.8"/>
      </g>
     </g>
     <g id="text_16">
      <!-- 2015 -->
      <g style="fill: #1a1a1a" transform="translate(414.952867 312.958281) scale(0.1 -0.1)">
       <use xlink:href="#SimHei-32"/>
       <use xlink:href="#SimHei-30" transform="translate(50 0)"/>
       <use xlink:href="#SimHei-31" transform="translate(100 0)"/>
       <use xlink:href="#SimHei-35" transform="translate(150 0)"/>
      </g>
     </g>
    </g>
    <g id="xtick_17">
     <g id="line2d_17">
      <g>
       <use xlink:href="#m7c6f53489b" x="447.132894" y="299.083281" style="stroke: #000000; stroke-width: 0.8"/>
      </g>
     </g>
     <g id="text_17">
      <!-- 2016 -->
      <g style="fill: #1a1a1a" transform="translate(437.132894 312.958281) scale(0.1 -0.1)">
       <use xlink:href="#SimHei-32"/>
       <use xlink:href="#SimHei-30" transform="translate(50 0)"/>
       <use xlink:href="#SimHei-31" transform="translate(100 0)"/>
       <use xlink:href="#SimHei-36" transform="translate(150 0)"/>
      </g>
     </g>
    </g>
    <g id="xtick_18">
     <g id="line2d_18">
      <g>
       <use xlink:href="#m7c6f53489b" x="469.312922" y="299.083281" style="stroke: #000000; stroke-width: 0.8"/>
      </g>
     </g>
     <g id="text_18">
      <!-- 2017 -->
      <g style="fill: #1a1a1a" transform="translate(459.312922 312.958281) scale(0.1 -0.1)">
       <use xlink:href="#SimHei-32"/>
       <use xlink:href="#SimHei-30" transform="translate(50 0)"/>
       <use xlink:href="#SimHei-31" transform="translate(100 0)"/>
       <use xlink:href="#SimHei-37" transform="translate(150 0)"/>
      </g>
     </g>
    </g>
    <g id="xtick_19">
     <g id="line2d_19">
      <g>
       <use xlink:href="#m7c6f53489b" x="491.492949" y="299.083281" style="stroke: #000000; stroke-width: 0.8"/>
      </g>
     </g>
     <g id="text_19">
      <!-- 2018 -->
      <g style="fill: #1a1a1a" transform="translate(481.492949 312.958281) scale(0.1 -0.1)">
       <use xlink:href="#SimHei-32"/>
       <use xlink:href="#SimHei-30" transform="translate(50 0)"/>
       <use xlink:href="#SimHei-31" transform="translate(100 0)"/>
       <use xlink:href="#SimHei-38" transform="translate(150 0)"/>
      </g>
     </g>
    </g>
    <g id="xtick_20">
     <g id="line2d_20">
      <g>
       <use xlink:href="#m7c6f53489b" x="513.672976" y="299.083281" style="stroke: #000000; stroke-width: 0.8"/>
      </g>
     </g>
     <g id="text_20">
      <!-- 2019 -->
      <g style="fill: #1a1a1a" transform="translate(503.672976 312.958281) scale(0.1 -0.1)">
       <use xlink:href="#SimHei-32"/>
       <use xlink:href="#SimHei-30" transform="translate(50 0)"/>
       <use xlink:href="#SimHei-31" transform="translate(100 0)"/>
       <use xlink:href="#SimHei-39" transform="translate(150 0)"/>
      </g>
     </g>
    </g>
    <g id="xtick_21">
     <g id="line2d_21">
      <g>
       <use xlink:href="#m7c6f53489b" x="535.853004" y="299.083281" style="stroke: #000000; stroke-width: 0.8"/>
      </g>
     </g>
     <g id="text_21">
      <!-- 2020 -->
      <g style="fill: #1a1a1a" transform="translate(525.853004 312.958281) scale(0.1 -0.1)">
       <use xlink:href="#SimHei-32"/>
       <use xlink:href="#SimHei-30" transform="translate(50 0)"/>
       <use xlink:href="#SimHei-32" transform="translate(100 0)"/>
       <use xlink:href="#SimHei-30" transform="translate(150 0)"/>
      </g>
     </g>
    </g>
    <g id="xtick_22">
     <g id="line2d_22">
      <g>
       <use xlink:href="#m7c6f53489b" x="558.033031" y="299.083281" style="stroke: #000000; stroke-width: 0.8"/>
      </g>
     </g>
     <g id="text_22">
      <!-- 2021 -->
      <g style="fill: #1a1a1a" transform="translate(548.033031 312.958281) scale(0.1 -0.1)">
       <use xlink:href="#SimHei-32"/>
       <use xlink:href="#SimHei-30" transform="translate(50 0)"/>
       <use xlink:href="#SimHei-32" transform="translate(100 0)"/>
       <use xlink:href="#SimHei-31" transform="translate(150 0)"/>
      </g>
     </g>
    </g>
    <g id="xtick_23">
     <g id="line2d_23">
      <g>
       <use xlink:href="#m7c6f53489b" x="580.213058" y="299.083281" style="stroke: #000000; stroke-width: 0.8"/>
      </g>
     </g>
     <g id="text_23">
      <!-- 2022 -->
      <g style="fill: #1a1a1a" transform="translate(570.213058 312.958281) scale(0.1 -0.1)">
       <use xlink:href="#SimHei-32"/>
       <use xlink:href="#SimHei-30" transform="translate(50 0)"/>
       <use xlink:href="#SimHei-32" transform="translate(100 0)"/>
       <use xlink:href="#SimHei-32" transform="translate(150 0)"/>
      </g>
     </g>
    </g>
    <g id="xtick_24">
     <g id="line2d_24">
      <g>
       <use xlink:href="#m7c6f53489b" x="602.393085" y="299.083281" style="stroke: #000000; stroke-width: 0.8"/>
      </g>
     </g>
     <g id="text_24">
      <!-- 2023 -->
      <g style="fill: #1a1a1a" transform="translate(592.393085 312.958281) scale(0.1 -0.1)">
       <use xlink:href="#SimHei-32"/>
       <use xlink:href="#SimHei-30" transform="translate(50 0)"/>
       <use xlink:href="#SimHei-32" transform="translate(100 0)"/>
       <use xlink:href="#SimHei-33" transform="translate(150 0)"/>
      </g>
     </g>
    </g>
    <g id="xtick_25">
     <g id="line2d_25">
      <g>
       <use xlink:href="#m7c6f53489b" x="624.573113" y="299.083281" style="stroke: #000000; stroke-width: 0.8"/>
      </g>
     </g>
     <g id="text_25">
      <!-- 2024 -->
      <g style="fill: #1a1a1a" transform="translate(614.573113 312.958281) scale(0.1 -0.1)">
       <use xlink:href="#SimHei-32"/>
       <use xlink:href="#SimHei-30" transform="translate(50 0)"/>
       <use xlink:href="#SimHei-32" transform="translate(100 0)"/>
       <use xlink:href="#SimHei-34" transform="translate(150 0)"/>
      </g>
     </g>
    </g>
    <g id="xtick_26">
     <g id="line2d_26">
      <g>
       <use xlink:href="#m7c6f53489b" x="646.75314" y="299.083281" style="stroke: #000000; stroke-width: 0.8"/>
      </g>
     </g>
     <g id="text_26">
      <!-- 2025 -->
      <g style="fill: #1a1a1a" transform="translate(636.75314 312.958281) scale(0.1 -0.1)">
       <use xlink:href="#SimHei-32"/>
       <use xlink:href="#SimHei-30" transform="translate(50 0)"/>
       <use xlink:href="#SimHei-32" transform="translate(100 0)"/>
       <use xlink:href="#SimHei-35" transform="translate(150 0)"/>
      </g>
     </g>
    </g>
    <g id="xtick_27">
     <g id="line2d_27">
      <g>
       <use xlink:href="#m7c6f53489b" x="668.933167" y="299.083281" style="stroke: #000000; stroke-width: 0.8"/>
      </g>
     </g>
     <g id="text_27">
      <!-- 2026 -->
      <g style="fill: #1a1a1a" transform="translate(658.933167 312.958281) scale(0.1 -0.1)">
       <use xlink:href="#SimHei-32"/>
       <use xlink:href="#SimHei-30" transform="translate(50 0)"/>
       <use xlink:href="#SimHei-32" transform="translate(100 0)"/>
       <use xlink:href="#SimHei-36" transform="translate(150 0)"/>
      </g>
     </g>
    </g>
    <g id="text_28">
     <!-- 年份 (Year) -->
     <g transform="translate(344.842812 328.567656) scale(0.13 -0.13)">
      <defs>
       <path id="SimHei-5e74" d="M 350 2925 
Q 900 3450 1375 4200 
Q 1850 4950 1900 5275 
Q 2275 5125 2600 5050 
Q 2375 4825 2100 4325 
L 4625 4325 
Q 5175 4325 5750 4350 
L 5750 3925 
Q 5225 3950 4625 3950 
L 3800 3950 
L 3800 2925 
Q 4750 2925 5475 2950 
L 5475 2525 
Q 4725 2550 3800 2550 
L 3800 1375 
L 5075 1375 
Q 5625 1375 6100 1400 
L 6100 975 
Q 5650 1000 5075 1000 
L 3800 1000 
L 3800 425 
Q 3800 -150 3825 -625 
L 3275 -625 
Q 3300 -150 3300 375 
L 3300 1000 
L 1600 1000 
Q 900 1000 275 975 
L 275 1400 
Q 875 1375 1450 1375 
Q 1450 2350 1425 2925 
L 3300 2925 
L 3300 3950 
L 1875 3950 
Q 1350 3150 925 2650 
Q 650 2875 350 2925 
z
M 3300 1375 
L 3300 2550 
L 1925 2550 
L 1925 1375 
L 3300 1375 
z
" transform="scale(0.015625)"/>
       <path id="SimHei-4efd" d="M 4750 5100 
Q 4875 4375 5250 3650 
Q 5625 2925 6200 2450 
Q 6025 2375 5775 2075 
Q 5600 2275 5350 2575 
Q 5300 2275 5275 1312 
Q 5250 350 5187 25 
Q 5125 -300 4850 -400 
Q 4575 -500 4075 -550 
Q 4000 -250 3875 0 
Q 4400 -25 4575 25 
Q 4750 75 4775 587 
Q 4800 1100 4825 2250 
L 3700 2250 
Q 3675 1300 3425 650 
Q 3175 0 2375 -625 
Q 2175 -350 2000 -225 
Q 2750 225 2987 800 
Q 3225 1375 3225 2250 
Q 3000 2250 2675 2225 
L 2675 2575 
Q 2475 2300 2150 1950 
Q 2000 2150 1750 2300 
Q 2875 3275 3225 4875 
Q 3450 4775 3750 4675 
Q 3625 4400 3425 3887 
Q 3225 3375 2775 2700 
Q 3050 2675 3400 2675 
L 5300 2675 
Q 4575 3625 4275 4975 
Q 4575 5025 4750 5100 
z
M 225 2525 
Q 575 2875 1025 3687 
Q 1475 4500 1650 5225 
Q 1975 5075 2200 4975 
Q 2050 4750 1600 3775 
L 1600 625 
Q 1600 75 1625 -575 
L 1100 -575 
Q 1125 50 1125 625 
L 1125 2925 
Q 775 2400 575 2175 
Q 425 2350 225 2525 
z
" transform="scale(0.015625)"/>
       <path id="SimHei-20" transform="scale(0.015625)"/>
       <path id="SimHei-28" d="M 2975 -200 
L 2700 -475 
Q 2075 125 1762 775 
Q 1450 1425 1450 2250 
Q 1450 3075 1762 3725 
Q 2075 4375 2700 5000 
L 2975 4725 
Q 2400 4175 2112 3587 
Q 1825 3000 1825 2250 
Q 1825 1500 2112 912 
Q 2400 325 2975 -200 
z
" transform="scale(0.015625)"/>
       <path id="SimHei-59" d="M 3025 4400 
L 1850 2050 
L 1850 125 
L 1275 125 
L 1275 2050 
L 100 4400 
L 675 4400 
L 1550 2575 
L 1575 2575 
L 2450 4400 
L 3025 4400 
z
" transform="scale(0.015625)"/>
       <path id="SimHei-65" d="M 2850 1075 
Q 2800 625 2450 350 
Q 2100 75 1625 75 
Q 1025 75 637 462 
Q 250 850 250 1525 
Q 250 2200 637 2587 
Q 1025 2975 1625 2975 
Q 2150 2975 2487 2637 
Q 2825 2300 2825 1525 
L 800 1525 
Q 800 975 1037 750 
Q 1275 525 1625 525 
Q 1900 525 2075 662 
Q 2250 800 2300 1075 
L 2850 1075 
z
M 2250 1925 
Q 2200 2275 2025 2412 
Q 1850 2550 1575 2550 
Q 1325 2550 1125 2412 
Q 925 2275 825 1925 
L 2250 1925 
z
" transform="scale(0.015625)"/>
       <path id="SimHei-61" d="M 2875 125 
L 2275 125 
Q 2225 175 2200 262 
Q 2175 350 2175 475 
Q 2000 275 1750 175 
Q 1500 75 1225 75 
Q 825 75 550 275 
Q 275 475 275 850 
Q 275 1225 525 1450 
Q 775 1675 1300 1750 
Q 1650 1800 1912 1875 
Q 2175 1950 2175 2075 
Q 2175 2225 2062 2375 
Q 1950 2525 1575 2525 
Q 1275 2525 1137 2412 
Q 1000 2300 950 2100 
L 400 2100 
Q 450 2500 762 2737 
Q 1075 2975 1575 2975 
Q 2125 2975 2400 2725 
Q 2675 2475 2675 2025 
L 2675 650 
Q 2675 500 2725 375 
Q 2775 250 2875 125 
z
M 2175 1050 
L 2175 1550 
Q 2025 1500 1887 1462 
Q 1750 1425 1425 1375 
Q 1050 1325 937 1200 
Q 825 1075 825 900 
Q 825 750 937 637 
Q 1050 525 1275 525 
Q 1500 525 1762 650 
Q 2025 775 2175 1050 
z
" transform="scale(0.015625)"/>
       <path id="SimHei-72" d="M 2500 2425 
Q 2025 2500 1700 2287 
Q 1375 2075 1150 1550 
L 1150 125 
L 650 125 
L 650 2925 
L 1150 2925 
L 1150 2200 
Q 1375 2600 1712 2787 
Q 2050 2975 2500 2975 
L 2500 2425 
z
" transform="scale(0.015625)"/>
       <path id="SimHei-29" d="M 1675 2250 
Q 1675 1425 1362 775 
Q 1050 125 425 -475 
L 150 -200 
Q 725 325 1012 912 
Q 1300 1500 1300 2250 
Q 1300 3000 1012 3587 
Q 725 4175 150 4725 
L 425 5000 
Q 1050 4375 1362 3725 
Q 1675 3075 1675 2250 
z
" transform="scale(0.015625)"/>
      </defs>
      <use xlink:href="#SimHei-5e74"/>
      <use xlink:href="#SimHei-4efd" transform="translate(100 0)"/>
      <use xlink:href="#SimHei-20" transform="translate(200 0)"/>
      <use xlink:href="#SimHei-28" transform="translate(250 0)"/>
      <use xlink:href="#SimHei-59" transform="translate(300 0)"/>
      <use xlink:href="#SimHei-65" transform="translate(350 0)"/>
      <use xlink:href="#SimHei-61" transform="translate(400 0)"/>
      <use xlink:href="#SimHei-72" transform="translate(450 0)"/>
      <use xlink:href="#SimHei-29" transform="translate(500 0)"/>
     </g>
    </g>
   </g>
   <g id="matplotlib.axis_2">
    <g id="ytick_1">
     <g id="line2d_28">
      <path d="M 55.489063 299.083281 
L 705.696563 299.083281 
" clip-path="url(#pc7302cb93d)" style="fill: none; stroke-dasharray: 1.48,0.64; stroke-dashoffset: 0; stroke: #b0b0b0; stroke-opacity: 0.5; stroke-width: 0.4"/>
     </g>
     <g id="line2d_29">
      <defs>
       <path id="m3da75fdc22" d="M 0 0 
L -3.5 0 
" style="stroke: #000000; stroke-width: 0.8"/>
      </defs>
      <g>
       <use xlink:href="#m3da75fdc22" x="55.489063" y="299.083281" style="stroke: #000000; stroke-width: 0.8"/>
      </g>
     </g>
     <g id="text_29">
      <!-- 0 -->
      <g style="fill: #1a1a1a" transform="translate(43.489063 302.520781) scale(0.1 -0.1)">
       <use xlink:href="#SimHei-30"/>
      </g>
     </g>
    </g>
    <g id="ytick_2">
     <g id="line2d_30">
      <path d="M 55.489063 255.429497 
L 705.696563 255.429497 
" clip-path="url(#pc7302cb93d)" style="fill: none; stroke-dasharray: 1.48,0.64; stroke-dashoffset: 0; stroke: #b0b0b0; stroke-opacity: 0.5; stroke-width: 0.4"/>
     </g>
     <g id="line2d_31">
      <g>
       <use xlink:href="#m3da75fdc22" x="55.489063" y="255.429497" style="stroke: #000000; stroke-width: 0.8"/>
      </g>
     </g>
     <g id="text_30">
      <!-- 10000 -->
      <g style="fill: #1a1a1a" transform="translate(23.489063 258.866997) scale(0.1 -0.1)">
       <use xlink:href="#SimHei-31"/>
       <use xlink:href="#SimHei-30" transform="translate(50 0)"/>
       <use xlink:href="#SimHei-30" transform="translate(100 0)"/>
       <use xlink:href="#SimHei-30" transform="translate(150 0)"/>
       <use xlink:href="#SimHei-30" transform="translate(200 0)"/>
      </g>
     </g>
    </g>
    <g id="ytick_3">
     <g id="line2d_32">
      <path d="M 55.489063 211.775713 
L 705.696563 211.775713 
" clip-path="url(#pc7302cb93d)" style="fill: none; stroke-dasharray: 1.48,0.64; stroke-dashoffset: 0; stroke: #b0b0b0; stroke-opacity: 0.5; stroke-width: 0.4"/>
     </g>
     <g id="line2d_33">
      <g>
       <use xlink:href="#m3da75fdc22" x="55.489063" y="211.775713" style="stroke: #000000; stroke-width: 0.8"/>
      </g>
     </g>
     <g id="text_31">
      <!-- 20000 -->
      <g style="fill: #1a1a1a" transform="translate(23.489063 215.213213) scale(0.1 -0.1)">
       <use xlink:href="#SimHei-32"/>
       <use xlink:href="#SimHei-30" transform="translate(50 0)"/>
       <use xlink:href="#SimHei-30" transform="translate(100 0)"/>
       <use xlink:href="#SimHei-30" transform="translate(150 0)"/>
       <use xlink:href="#SimHei-30" transform="translate(200 0)"/>
      </g>
     </g>
    </g>
    <g id="ytick_4">
     <g id="line2d_34">
      <path d="M 55.489063 168.121928 
L 705.696563 168.121928 
" clip-path="url(#pc7302cb93d)" style="fill: none; stroke-dasharray: 1.48,0.64; stroke-dashoffset: 0; stroke: #b0b0b0; stroke-opacity: 0.5; stroke-width: 0.4"/>
     </g>
     <g id="line2d_35">
      <g>
       <use xlink:href="#m3da75fdc22" x="55.489063" y="168.121928" style="stroke: #000000; stroke-width: 0.8"/>
      </g>
     </g>
     <g id="text_32">
      <!-- 30000 -->
      <g style="fill: #1a1a1a" transform="translate(23.489063 171.559428) scale(0.1 -0.1)">
       <use xlink:href="#SimHei-33"/>
       <use xlink:href="#SimHei-30" transform="translate(50 0)"/>
       <use xlink:href="#SimHei-30" transform="translate(100 0)"/>
       <use xlink:href="#SimHei-30" transform="translate(150 0)"/>
       <use xlink:href="#SimHei-30" transform="translate(200 0)"/>
      </g>
     </g>
    </g>
    <g id="ytick_5">
     <g id="line2d_36">
      <path d="M 55.489063 124.468144 
L 705.696563 124.468144 
" clip-path="url(#pc7302cb93d)" style="fill: none; stroke-dasharray: 1.48,0.64; stroke-dashoffset: 0; stroke: #b0b0b0; stroke-opacity: 0.5; stroke-width: 0.4"/>
     </g>
     <g id="line2d_37">
      <g>
       <use xlink:href="#m3da75fdc22" x="55.489063" y="124.468144" style="stroke: #000000; stroke-width: 0.8"/>
      </g>
     </g>
     <g id="text_33">
      <!-- 40000 -->
      <g style="fill: #1a1a1a" transform="translate(23.489063 127.905644) scale(0.1 -0.1)">
       <use xlink:href="#SimHei-34"/>
       <use xlink:href="#SimHei-30" transform="translate(50 0)"/>
       <use xlink:href="#SimHei-30" transform="translate(100 0)"/>
       <use xlink:href="#SimHei-30" transform="translate(150 0)"/>
       <use xlink:href="#SimHei-30" transform="translate(200 0)"/>
      </g>
     </g>
    </g>
    <g id="ytick_6">
     <g id="line2d_38">
      <path d="M 55.489063 80.814359 
L 705.696563 80.814359 
" clip-path="url(#pc7302cb93d)" style="fill: none; stroke-dasharray: 1.48,0.64; stroke-dashoffset: 0; stroke: #b0b0b0; stroke-opacity: 0.5; stroke-width: 0.4"/>
     </g>
     <g id="line2d_39">
      <g>
       <use xlink:href="#m3da75fdc22" x="55.489063" y="80.814359" style="stroke: #000000; stroke-width: 0.8"/>
      </g>
     </g>
     <g id="text_34">
      <!-- 50000 -->
      <g style="fill: #1a1a1a" transform="translate(23.489063 84.251859) scale(0.1 -0.1)">
       <use xlink:href="#SimHei-35"/>
       <use xlink:href="#SimHei-30" transform="translate(50 0)"/>
       <use xlink:href="#SimHei-30" transform="translate(100 0)"/>
       <use xlink:href="#SimHei-30" transform="translate(150 0)"/>
       <use xlink:href="#SimHei-30" transform="translate(200 0)"/>
      </g>
     </g>
    </g>
    <g id="text_35">
     <!-- 论文数量 (Paper Count) -->
     <g transform="translate(17.864062 239.823281) rotate(-90) scale(0.13 -0.13)">
      <defs>
       <path id="SimHei-8bba" d="M 3500 1600 
Q 3825 1725 4250 2000 
Q 4675 2275 4975 2575 
Q 5225 2275 5400 2100 
Q 5050 1950 4550 1675 
Q 4050 1400 3500 1150 
L 3500 300 
Q 3500 -100 3800 -100 
L 4825 -100 
Q 5125 -100 5250 137 
Q 5375 375 5375 575 
Q 5675 350 5925 275 
Q 5750 -225 5550 -375 
Q 5350 -525 5100 -525 
L 3550 -525 
Q 3025 -475 3025 0 
L 3025 2175 
Q 3025 2525 3000 2850 
L 3525 2850 
Q 3500 2400 3500 2200 
L 3500 1600 
z
M 4175 4850 
Q 4400 4350 4950 3687 
Q 5500 3025 6175 2700 
Q 5975 2575 5800 2275 
Q 5100 2750 4637 3375 
Q 4175 4000 3950 4425 
Q 3725 3950 3387 3425 
Q 3050 2900 2325 2200 
Q 2175 2375 1950 2575 
Q 2350 2825 2650 3175 
Q 2950 3525 3200 3962 
Q 3450 4400 3575 4725 
Q 3700 5050 3750 5250 
Q 3975 5150 4275 5050 
L 4175 4850 
z
M 1600 3150 
Q 1575 2750 1575 2275 
L 1575 550 
Q 1950 825 2400 1300 
Q 2500 1075 2650 800 
Q 2250 475 1900 187 
Q 1550 -100 1250 -375 
Q 1150 -225 900 50 
Q 1100 250 1100 450 
L 1100 2700 
L 800 2700 
Q 550 2700 275 2675 
L 275 3175 
Q 550 3150 800 3150 
L 1600 3150 
z
M 975 5000 
Q 1550 4525 2125 4025 
Q 1950 3875 1750 3650 
Q 1325 4150 650 4650 
Q 825 4800 975 5000 
z
" transform="scale(0.015625)"/>
       <path id="SimHei-6587" d="M 1250 3450 
Q 725 3450 350 3400 
L 350 3925 
Q 925 3900 1400 3900 
L 4950 3900 
Q 5400 3900 6025 3925 
L 6025 3400 
Q 5400 3425 4625 3425 
Q 4500 2650 4175 1987 
Q 3850 1325 3475 900 
Q 3950 475 4725 212 
Q 5500 -50 6075 -100 
Q 5850 -275 5675 -625 
Q 5250 -525 4575 -275 
Q 3900 -25 3125 575 
Q 2100 -275 675 -675 
Q 625 -450 325 -175 
Q 750 -125 1487 137 
Q 2225 400 2750 875 
Q 1875 1775 1500 3450 
L 1250 3450 
z
M 2025 3425 
Q 2225 2075 3100 1200 
Q 3900 2175 4100 3425 
L 2025 3425 
z
M 2850 5250 
Q 3125 4825 3500 4175 
Q 3300 4125 3050 3925 
Q 2700 4575 2425 5000 
Q 2600 5050 2850 5250 
z
" transform="scale(0.015625)"/>
       <path id="SimHei-6570" d="M 4525 4925 
Q 4475 4800 4400 4587 
Q 4325 4375 4175 3825 
L 5325 3825 
Q 5575 3825 5925 3850 
L 5925 3400 
Q 5650 3425 5500 3425 
Q 5500 3025 5362 2162 
Q 5225 1300 4875 675 
Q 5125 375 5437 137 
Q 5750 -100 6025 -200 
Q 5725 -425 5625 -625 
Q 5325 -450 5075 -225 
Q 4825 0 4575 325 
Q 4300 25 3987 -187 
Q 3675 -400 3200 -650 
Q 3075 -425 2850 -300 
Q 3225 -150 3650 125 
Q 4075 400 4300 675 
Q 4125 1025 3962 1425 
Q 3800 1825 3675 2475 
Q 3600 2275 3425 1950 
Q 3250 2050 3000 2150 
Q 3400 2850 3650 3675 
Q 3900 4500 3975 5100 
Q 4275 4975 4525 4925 
z
M 2100 2250 
Q 2000 2150 1875 1925 
L 3250 1925 
Q 3100 1300 2725 675 
Q 3125 525 3350 400 
Q 3225 225 3125 25 
Q 2900 175 2450 325 
Q 1950 -225 725 -650 
Q 600 -375 400 -275 
Q 1575 0 2000 475 
Q 1300 650 850 775 
Q 1000 1000 1250 1525 
Q 1000 1525 425 1500 
L 425 1950 
Q 900 1925 1400 1925 
Q 1500 2150 1550 2425 
Q 1825 2325 2100 2250 
z
M 1775 3950 
Q 1775 4550 1750 5100 
L 2250 5100 
Q 2225 4575 2225 3950 
Q 3075 3950 3425 3975 
L 3425 3525 
Q 3075 3550 2225 3550 
Q 2225 2825 2250 2425 
L 1750 2425 
Q 1775 2775 1775 3300 
Q 1650 3100 1300 2787 
Q 950 2475 650 2300 
Q 525 2525 275 2625 
Q 500 2700 875 2975 
Q 1250 3250 1450 3550 
Q 950 3550 500 3525 
L 500 3975 
Q 925 3950 1775 3950 
z
M 3975 3175 
Q 4200 1700 4600 1125 
Q 4850 1700 4937 2287 
Q 5025 2875 5050 3425 
L 4075 3425 
L 3975 3175 
z
M 1450 1000 
Q 1750 925 2275 800 
Q 2475 1050 2650 1525 
L 1725 1525 
Q 1600 1275 1450 1000 
z
M 3325 4825 
Q 3200 4625 3125 4450 
Q 3050 4275 2925 4025 
Q 2725 4125 2525 4175 
Q 2725 4500 2900 5000 
Q 3150 4875 3325 4825 
z
M 2575 3375 
Q 2900 3050 3200 2725 
Q 3050 2600 2875 2425 
Q 2525 2850 2300 3100 
Q 2450 3225 2575 3375 
z
M 925 5000 
Q 1275 4650 1500 4300 
L 1125 4075 
Q 950 4425 600 4725 
Q 825 4875 925 5000 
z
" transform="scale(0.015625)"/>
       <path id="SimHei-91cf" d="M 5250 2500 
Q 5225 2200 5225 1700 
Q 5225 1225 5250 950 
L 3425 950 
L 3425 625 
L 4575 625 
Q 5000 625 5375 650 
L 5375 275 
Q 5025 300 4575 300 
L 3425 300 
L 3425 -75 
L 5125 -75 
Q 5525 -75 5925 -50 
L 5925 -425 
Q 5525 -400 5125 -400 
L 1275 -400 
Q 900 -400 475 -425 
L 475 -50 
Q 925 -50 1275 -75 
L 2975 -75 
L 2975 300 
L 1725 300 
Q 1350 300 975 250 
L 975 650 
Q 1375 625 1725 625 
L 2975 625 
L 2975 950 
L 1150 950 
Q 1175 1375 1175 1775 
Q 1175 2175 1150 2500 
L 5250 2500 
z
M 5200 4950 
Q 5175 4575 5175 4250 
Q 5175 3925 5200 3400 
L 1200 3400 
Q 1225 3925 1225 4250 
Q 1225 4575 1200 4950 
L 5200 4950 
z
M 4900 3100 
Q 5500 3125 6000 3150 
L 6000 2750 
Q 5500 2775 4925 2775 
L 1650 2775 
Q 975 2775 325 2750 
L 325 3150 
Q 975 3125 1650 3100 
L 4900 3100 
z
M 4725 3700 
L 4725 4025 
L 1675 4025 
L 1675 3700 
L 4725 3700 
z
M 4725 4350 
L 4725 4650 
L 1675 4650 
L 1675 4350 
L 4725 4350 
z
M 4750 1875 
L 4750 2175 
L 3425 2175 
L 3425 1875 
L 4750 1875 
z
M 2975 1875 
L 2975 2175 
L 1650 2175 
L 1650 1875 
L 2975 1875 
z
M 2975 1275 
L 2975 1550 
L 1650 1550 
L 1650 1275 
L 2975 1275 
z
M 4750 1275 
L 4750 1550 
L 3425 1550 
L 3425 1275 
L 4750 1275 
z
" transform="scale(0.015625)"/>
       <path id="SimHei-50" d="M 2950 3100 
Q 2950 2500 2600 2150 
Q 2250 1800 1625 1800 
L 900 1800 
L 900 125 
L 325 125 
L 325 4400 
L 1625 4400 
Q 2250 4400 2600 4050 
Q 2950 3700 2950 3100 
z
M 2375 3100 
Q 2375 3575 2150 3750 
Q 1925 3925 1475 3925 
L 900 3925 
L 900 2275 
L 1475 2275 
Q 1925 2275 2150 2450 
Q 2375 2625 2375 3100 
z
" transform="scale(0.015625)"/>
       <path id="SimHei-70" d="M 2825 1525 
Q 2825 800 2475 425 
Q 2125 50 1625 50 
Q 1350 50 1150 162 
Q 950 275 800 500 
L 800 -800 
L 300 -800 
L 300 2925 
L 800 2925 
L 800 2550 
Q 950 2775 1150 2875 
Q 1350 2975 1625 2975 
Q 2125 2975 2475 2612 
Q 2825 2250 2825 1525 
z
M 2275 1525 
Q 2275 2000 2087 2262 
Q 1900 2525 1525 2525 
Q 1225 2525 1012 2262 
Q 800 2000 800 1525 
Q 800 1050 1012 775 
Q 1225 500 1525 500 
Q 1900 500 2087 775 
Q 2275 1050 2275 1525 
z
" transform="scale(0.015625)"/>
       <path id="SimHei-43" d="M 2975 1825 
Q 2950 875 2575 475 
Q 2200 75 1675 75 
Q 1075 75 650 562 
Q 225 1050 225 2125 
Q 225 3300 637 3875 
Q 1050 4450 1700 4450 
Q 2250 4450 2612 4037 
Q 2975 3625 2950 2875 
L 2400 2875 
Q 2400 3425 2225 3700 
Q 2050 3975 1700 3975 
Q 1300 3975 1062 3562 
Q 825 3150 825 2175 
Q 825 1275 1062 912 
Q 1300 550 1675 550 
Q 1950 550 2175 812 
Q 2400 1075 2400 1825 
L 2975 1825 
z
" transform="scale(0.015625)"/>
       <path id="SimHei-6f" d="M 2925 1525 
Q 2925 875 2525 475 
Q 2125 75 1575 75 
Q 1025 75 625 475 
Q 225 875 225 1525 
Q 225 2175 625 2575 
Q 1025 2975 1575 2975 
Q 2125 2975 2525 2575 
Q 2925 2175 2925 1525 
z
M 2375 1525 
Q 2375 2025 2125 2275 
Q 1875 2525 1575 2525 
Q 1275 2525 1025 2275 
Q 775 2025 775 1525 
Q 775 1025 1025 775 
Q 1275 525 1575 525 
Q 1875 525 2125 775 
Q 2375 1025 2375 1525 
z
" transform="scale(0.015625)"/>
       <path id="SimHei-75" d="M 2800 125 
L 2300 125 
L 2300 650 
Q 2100 375 1862 225 
Q 1625 75 1250 75 
Q 800 75 575 325 
Q 350 575 350 950 
L 350 2925 
L 850 2925 
L 850 1125 
Q 850 825 1000 650 
Q 1150 475 1400 475 
Q 1725 475 2012 812 
Q 2300 1150 2300 1650 
L 2300 2925 
L 2800 2925 
L 2800 125 
z
" transform="scale(0.015625)"/>
       <path id="SimHei-6e" d="M 2800 125 
L 2300 125 
L 2300 1925 
Q 2300 2225 2150 2400 
Q 2000 2575 1750 2575 
Q 1425 2575 1137 2237 
Q 850 1900 850 1400 
L 850 125 
L 350 125 
L 350 2925 
L 850 2925 
L 850 2400 
Q 1050 2675 1287 2825 
Q 1525 2975 1900 2975 
Q 2350 2975 2575 2725 
Q 2800 2475 2800 2100 
L 2800 125 
z
" transform="scale(0.015625)"/>
       <path id="SimHei-74" d="M 2750 200 
Q 2625 150 2462 112 
Q 2300 75 2025 75 
Q 1575 75 1300 325 
Q 1025 575 1025 1025 
L 1025 2525 
L 175 2525 
L 175 2925 
L 1025 2925 
L 1025 3900 
L 1525 3900 
L 1525 2925 
L 2550 2925 
L 2550 2525 
L 1525 2525 
L 1525 1000 
Q 1525 800 1625 662 
Q 1725 525 2000 525 
Q 2275 525 2450 575 
Q 2625 625 2750 700 
L 2750 200 
z
" transform="scale(0.015625)"/>
      </defs>
      <use xlink:href="#SimHei-8bba"/>
      <use xlink:href="#SimHei-6587" transform="translate(100 0)"/>
      <use xlink:href="#SimHei-6570" transform="translate(200 0)"/>
      <use xlink:href="#SimHei-91cf" transform="translate(300 0)"/>
      <use xlink:href="#SimHei-20" transform="translate(400 0)"/>
      <use xlink:href="#SimHei-28" transform="translate(450 0)"/>
      <use xlink:href="#SimHei-50" transform="translate(500 0)"/>
      <use xlink:href="#SimHei-61" transform="translate(550 0)"/>
      <use xlink:href="#SimHei-70" transform="translate(600 0)"/>
      <use xlink:href="#SimHei-65" transform="translate(650 0)"/>
      <use xlink:href="#SimHei-72" transform="translate(700 0)"/>
      <use xlink:href="#SimHei-20" transform="translate(750 0)"/>
      <use xlink:href="#SimHei-43" transform="translate(800 0)"/>
      <use xlink:href="#SimHei-6f" transform="translate(850 0)"/>
      <use xlink:href="#SimHei-75" transform="translate(900 0)"/>
      <use xlink:href="#SimHei-6e" transform="translate(950 0)"/>
      <use xlink:href="#SimHei-74" transform="translate(1000 0)"/>
      <use xlink:href="#SimHei-29" transform="translate(1050 0)"/>
     </g>
    </g>
   </g>
   <g id="patch_30">
    <path d="M 55.489063 299.083281 
L 55.489063 37.563281 
" style="fill: none; stroke: #000000; stroke-width: 0.8; stroke-linejoin: miter; stroke-linecap: square"/>
   </g>
   <g id="patch_31">
    <path d="M 55.489063 299.083281 
L 705.696562 299.083281 
" style="fill: none; stroke: #000000; stroke-width: 0.8; stroke-linejoin: miter; stroke-linecap: square"/>
   </g>
   <g id="text_36">
    <!-- 历年论文收录趋势 (Annual Paper Collection Trend) -->
    <g transform="translate(200.592812 19.563281) scale(0.15 -0.15)">
     <defs>
      <path id="SimHei-5386" d="M 3725 2500 
Q 3625 1775 3487 1337 
Q 3350 900 3150 562 
Q 2950 225 2687 -62 
Q 2425 -350 2075 -625 
Q 1825 -350 1500 -225 
Q 2075 75 2387 412 
Q 2700 750 2875 1125 
Q 3050 1500 3112 1787 
Q 3175 2075 3225 2500 
L 2725 2500 
Q 2125 2500 1900 2475 
L 1900 2950 
Q 2375 2925 2675 2925 
L 3250 2925 
Q 3275 3250 3275 3550 
L 3275 4275 
Q 3625 4175 3900 4150 
Q 3825 3775 3800 3512 
Q 3775 3250 3750 2925 
L 5650 2925 
Q 5600 2550 5550 1850 
Q 5500 1150 5475 687 
Q 5450 225 5375 -50 
Q 5300 -325 4987 -412 
Q 4675 -500 4300 -550 
Q 4225 -250 4050 100 
Q 4575 75 4725 125 
Q 4875 175 4912 562 
Q 4950 950 5000 1475 
Q 5050 2000 5075 2500 
L 3725 2500 
z
M 800 -675 
Q 550 -500 225 -400 
Q 525 0 662 412 
Q 800 825 900 1412 
Q 1000 2000 1000 2725 
L 1000 3950 
Q 1000 4450 950 4825 
L 4825 4825 
Q 5375 4825 5675 4850 
L 5675 4375 
Q 5425 4400 5000 4400 
L 1500 4400 
Q 1500 2800 1487 2287 
Q 1475 1775 1412 1275 
Q 1350 775 1262 450 
Q 1175 125 1062 -162 
Q 950 -450 800 -675 
z
" transform="scale(0.015625)"/>
      <path id="SimHei-6536" d="M 4250 5050 
Q 4125 4850 3750 4050 
L 5150 4050 
Q 5675 4050 6125 4075 
L 6125 3600 
Q 5675 3625 5300 3625 
Q 5225 2625 5025 1975 
Q 4825 1325 4575 900 
Q 4900 500 5287 275 
Q 5675 50 6200 -75 
Q 5900 -275 5800 -550 
Q 5300 -350 4950 -100 
Q 4600 150 4275 525 
Q 3800 0 2775 -625 
Q 2650 -425 2300 -225 
Q 3275 150 3950 925 
Q 3775 1325 3612 1787 
Q 3450 2250 3250 3000 
Q 2975 2450 2825 2275 
Q 2650 2400 2425 2525 
Q 2775 3025 3137 3837 
Q 3500 4650 3625 5250 
Q 3925 5125 4250 5050 
z
M 975 4275 
Q 925 3950 925 3450 
L 925 1575 
L 1775 1725 
L 1775 4425 
Q 1775 4775 1750 5150 
L 2250 5150 
Q 2225 4850 2225 4450 
L 2225 300 
Q 2225 -50 2250 -550 
L 1750 -550 
Q 1775 -25 1775 350 
L 1775 1350 
Q 625 1050 500 925 
Q 375 1125 225 1350 
Q 450 1475 450 1800 
L 450 3575 
Q 450 3925 425 4275 
L 975 4275 
z
M 3725 3150 
Q 3800 2700 3962 2212 
Q 4125 1725 4300 1375 
Q 4725 2150 4825 3625 
L 3575 3625 
Q 3400 3275 3300 3100 
L 3725 3150 
z
" transform="scale(0.015625)"/>
      <path id="SimHei-5f55" d="M 1225 3475 
L 1225 3925 
Q 1700 3900 2050 3900 
L 4600 3900 
L 4650 4450 
L 2025 4450 
Q 1525 4450 1000 4425 
L 1000 4900 
Q 1525 4850 2000 4850 
L 5200 4850 
Q 5100 3950 5025 2925 
Q 5575 2925 6050 2950 
L 6050 2500 
Q 5625 2525 5175 2525 
L 3500 2525 
L 3500 2000 
Q 3750 1575 3975 1400 
Q 4700 1900 5000 2225 
Q 5250 2025 5475 1825 
Q 5050 1625 4275 1100 
Q 4675 700 5050 525 
Q 5425 350 6075 200 
Q 5800 -100 5725 -375 
Q 5050 -75 4487 325 
Q 3925 725 3500 1300 
L 3500 -25 
Q 3500 -375 3175 -500 
Q 2850 -625 2500 -675 
Q 2475 -375 2300 -75 
Q 2775 -100 2875 -37 
Q 2975 25 2975 250 
L 2975 2525 
L 1275 2525 
Q 825 2525 350 2500 
L 350 2950 
Q 825 2925 1275 2925 
L 4525 2925 
L 4575 3475 
L 1225 3475 
z
M 2875 1000 
Q 2425 725 1862 450 
Q 1300 175 675 -200 
Q 525 75 300 300 
Q 1100 550 1700 850 
Q 2300 1150 2775 1425 
Q 2825 1200 2875 1000 
z
M 1200 2275 
Q 1800 1825 2175 1500 
Q 2025 1350 1850 1125 
Q 1375 1600 925 1925 
Q 1075 2075 1200 2275 
z
" transform="scale(0.015625)"/>
      <path id="SimHei-8d8b" d="M 6000 -500 
Q 4950 -525 4237 -500 
Q 3525 -475 2950 -350 
Q 2375 -225 1950 25 
Q 1525 275 1100 700 
Q 875 -150 625 -600 
Q 400 -300 225 -225 
Q 500 175 600 587 
Q 700 1000 737 1375 
Q 775 1750 775 2025 
Q 1025 1950 1325 1925 
Q 1200 1550 1200 1250 
Q 1200 950 1700 625 
L 1700 2600 
Q 850 2600 400 2575 
L 400 2975 
Q 875 2950 1575 2950 
L 1575 3925 
Q 1050 3925 600 3900 
L 600 4325 
Q 1050 4300 1575 4300 
Q 1575 4750 1550 5200 
L 2050 5200 
Q 2025 4800 2025 4300 
Q 2400 4300 2800 4325 
L 2800 3900 
Q 2375 3925 2025 3925 
L 2025 2950 
Q 2550 2950 3000 2975 
L 3000 2575 
Q 2550 2600 2150 2600 
L 2150 1775 
Q 2475 1775 2850 1800 
L 2850 1400 
Q 2500 1425 2150 1425 
L 2150 350 
Q 2925 -50 4150 -50 
Q 5400 -50 6200 75 
Q 6025 -200 6000 -500 
z
M 5900 450 
Q 3750 450 3275 425 
L 3275 875 
Q 3750 850 5400 850 
L 5400 1625 
Q 3850 1625 3475 1600 
L 3475 2025 
Q 3850 2000 5400 2000 
L 5400 2875 
L 4075 2875 
Q 3775 2875 3425 2850 
L 3425 3150 
L 3350 3025 
Q 3150 3300 2925 3375 
Q 3325 3875 3575 4387 
Q 3825 4900 3925 5250 
Q 4225 5125 4475 5075 
Q 4350 4900 4150 4500 
L 5750 4500 
Q 5250 3675 5025 3225 
L 5900 3225 
Q 5875 2775 5875 1800 
Q 5875 850 5900 450 
z
M 3475 3250 
Q 3775 3225 4100 3225 
L 4525 3225 
Q 4675 3525 5025 4150 
L 3975 4150 
Q 3650 3525 3475 3250 
z
" transform="scale(0.015625)"/>
      <path id="SimHei-52bf" d="M 2700 1500 
Q 2725 1700 2725 1925 
Q 3075 1850 3275 1825 
Q 3225 1700 3200 1500 
L 5325 1500 
Q 5300 1150 5237 662 
Q 5175 175 5075 -62 
Q 4975 -300 4737 -375 
Q 4500 -450 3825 -525 
Q 3800 -275 3550 25 
Q 4325 -25 4475 62 
Q 4625 150 4675 350 
Q 4725 550 4775 1100 
L 3125 1100 
Q 2850 325 2250 -12 
Q 1650 -350 775 -600 
Q 675 -325 400 -125 
Q 1050 -50 1687 225 
Q 2325 500 2600 1100 
L 1550 1100 
Q 1075 1100 650 1075 
L 650 1525 
Q 1075 1500 1550 1500 
L 2700 1500 
z
M 2350 2250 
Q 3025 2500 3350 3050 
Q 3175 3175 2850 3325 
Q 3025 3475 3100 3675 
L 3500 3425 
Q 3550 3625 3600 4075 
Q 3225 4075 2925 4025 
L 2875 4425 
L 3600 4425 
Q 3600 4900 3550 5200 
Q 3775 5150 4125 5125 
Q 4050 4875 4050 4450 
L 5275 4475 
Q 5200 3975 5175 3450 
Q 5150 2925 5262 2650 
Q 5375 2375 5487 2337 
Q 5600 2300 5600 2925 
Q 5800 2725 6125 2675 
Q 5975 2075 5875 1925 
Q 5775 1775 5600 1750 
Q 5425 1725 5112 2000 
Q 4800 2275 4725 2800 
Q 4650 3325 4725 4100 
L 4050 4075 
Q 4000 3525 3950 3200 
Q 4150 3075 4450 2900 
Q 4225 2725 4100 2550 
Q 3925 2700 3775 2800 
Q 3400 2325 2850 1950 
Q 2675 2125 2350 2250 
z
M 2525 3300 
Q 2125 3200 1950 3175 
L 1950 2250 
Q 1925 1975 1662 1900 
Q 1400 1825 1000 1750 
Q 975 2025 800 2300 
Q 1350 2275 1425 2325 
Q 1500 2375 1500 2625 
L 1500 3075 
Q 875 2900 450 2775 
Q 375 3050 225 3225 
Q 675 3275 1500 3450 
L 1500 4025 
Q 800 4025 425 4000 
L 425 4450 
Q 800 4425 1500 4425 
Q 1500 4875 1475 5150 
L 2025 5150 
Q 1950 4900 1950 4425 
Q 2200 4425 2575 4450 
L 2575 4000 
Q 2200 4025 1950 4025 
L 1950 3550 
Q 2250 3600 2550 3700 
Q 2525 3525 2525 3300 
z
" transform="scale(0.015625)"/>
      <path id="SimHei-41" d="M 3075 125 
L 2475 125 
L 2125 1450 
L 1025 1450 
L 675 125 
L 75 125 
L 1325 4450 
L 1825 4450 
L 3075 125 
z
M 2000 1925 
L 1600 3450 
L 1550 3450 
L 1150 1925 
L 2000 1925 
z
" transform="scale(0.015625)"/>
      <path id="SimHei-6c" d="M 1825 125 
L 1325 125 
L 1325 4400 
L 1825 4400 
L 1825 125 
z
" transform="scale(0.015625)"/>
      <path id="SimHei-63" d="M 2850 1250 
Q 2850 725 2487 400 
Q 2125 75 1575 75 
Q 1025 75 625 462 
Q 225 850 225 1525 
Q 225 2200 625 2587 
Q 1025 2975 1575 2975 
Q 2125 2975 2450 2687 
Q 2775 2400 2775 2000 
L 2225 2000 
Q 2200 2300 2012 2412 
Q 1825 2525 1575 2525 
Q 1275 2525 1025 2287 
Q 775 2050 775 1525 
Q 775 1000 1025 762 
Q 1275 525 1575 525 
Q 1900 525 2100 700 
Q 2300 875 2300 1250 
L 2850 1250 
z
" transform="scale(0.015625)"/>
      <path id="SimHei-69" d="M 1800 3725 
L 1300 3725 
L 1300 4375 
L 1800 4375 
L 1800 3725 
z
M 1800 125 
L 1300 125 
L 1300 2925 
L 1800 2925 
L 1800 125 
z
" transform="scale(0.015625)"/>
      <path id="SimHei-54" d="M 2850 3925 
L 1850 3925 
L 1850 125 
L 1275 125 
L 1275 3925 
L 275 3925 
L 275 4400 
L 2850 4400 
L 2850 3925 
z
" transform="scale(0.015625)"/>
      <path id="SimHei-64" d="M 2750 125 
L 2250 125 
L 2250 500 
Q 2100 275 1900 175 
Q 1700 75 1425 75 
Q 925 75 575 437 
Q 225 800 225 1525 
Q 225 2250 575 2625 
Q 925 3000 1425 3000 
Q 1700 3000 1900 2887 
Q 2100 2775 2250 2550 
L 2250 4400 
L 2750 4400 
L 2750 125 
z
M 2250 1525 
Q 2250 2000 2037 2275 
Q 1825 2550 1525 2550 
Q 1150 2550 962 2275 
Q 775 2000 775 1525 
Q 775 1050 962 787 
Q 1150 525 1525 525 
Q 1825 525 2037 787 
Q 2250 1050 2250 1525 
z
" transform="scale(0.015625)"/>
     </defs>
     <use xlink:href="#SimHei-5386"/>
     <use xlink:href="#SimHei-5e74" transform="translate(100 0)"/>
     <use xlink:href="#SimHei-8bba" transform="translate(200 0)"/>
     <use xlink:href="#SimHei-6587" transform="translate(300 0)"/>
     <use xlink:href="#SimHei-6536" transform="translate(400 0)"/>
     <use xlink:href="#SimHei-5f55" transform="translate(500 0)"/>
     <use xlink:href="#SimHei-8d8b" transform="translate(600 0)"/>
     <use xlink:href="#SimHei-52bf" transform="translate(700 0)"/>
     <use xlink:href="#SimHei-20" transform="translate(800 0)"/>
     <use xlink:href="#SimHei-28" transform="translate(850 0)"/>
     <use xlink:href="#SimHei-41" transform="translate(900 0)"/>
     <use xlink:href="#SimHei-6e" transform="translate(950 0)"/>
     <use xlink:href="#SimHei-6e" transform="translate(1000 0)"/>
     <use xlink:href="#SimHei-75" transform="translate(1050 0)"/>
     <use xlink:href="#SimHei-61" transform="translate(1100 0)"/>
     <use xlink:href="#SimHei-6c" transform="translate(1150 0)"/>
     <use xlink:href="#SimHei-20" transform="translate(1200 0)"/>
     <use xlink:href="#SimHei-50" transform="translate(1250 0)"/>
     <use xlink:href="#SimHei-61" transform="translate(1300 0)"/>
     <use xlink:href="#SimHei-70" transform="translate(1350 0)"/>
     <use xlink:href="#SimHei-65" transform="translate(1400 0)"/>
     <use xlink:href="#SimHei-72" transform="translate(1450 0)"/>
     <use xlink:href="#SimHei-20" transform="translate(1500 0)"/>
     <use xlink:href="#SimHei-43" transform="translate(1550 0)"/>
     <use xlink:href="#SimHei-6f" transform="translate(1600 0)"/>
     <use xlink:href="#SimHei-6c" transform="translate(1650 0)"/>
     <use xlink:href="#SimHei-6c" transform="translate(1700 0)"/>
     <use xlink:href="#SimHei-65" transform="translate(1750 0)"/>
     <use xlink:href="#SimHei-63" transform="translate(1800 0)"/>
     <use xlink:href="#SimHei-74" transform="translate(1850 0)"/>
     <use xlink:href="#SimHei-69" transform="translate(1900 0)"/>
     <use xlink:href="#SimHei-6f" transform="translate(1950 0)"/>
     <use xlink:href="#SimHei-6e" transform="translate(2000 0)"/>
     <use xlink:href="#SimHei-20" transform="translate(2050 0)"/>
     <use xlink:href="#SimHei-54" transform="translate(2100 0)"/>
     <use xlink:href="#SimHei-72" transform="translate(2150 0)"/>
     <use xlink:href="#SimHei-65" transform="translate(2200 0)"/>
     <use xlink:href="#SimHei-6e" transform="translate(2250 0)"/>
     <use xlink:href="#SimHei-64" transform="translate(2300 0)"/>
     <use xlink:href="#SimHei-29" transform="translate(2350 0)"/>
    </g>
   </g>
  </g>
 </g>
 <defs>
  <clipPath id="pc7302cb93d">
   <rect x="55.489063" y="37.563281" width="650.2075" height="261.52"/>
  </clipPath>
 </defs>
</svg>
